<?xml version="1.0" standalone="no"?>
<!DOCTYPE svg PUBLIC "-//W3C//DTD SVG 1.0//EN" "http://www.w3.org/TR/2001/REC-SVG-20010904/DTD/svg10.dtd">
<svg xmlns="http://www.w3.org/2000/svg" xmlns:xlink="http://www.w3.org/1999/xlink" id="body_1" width="5" height="9">

<g transform="matrix(0.47368425 0 0 0.47368425 0.1315789 -0)">
    <path d="M3.10184 18.0585L3.10184 9.97671L0.964844 9.97671L0.964844 7.06688L3.10184 7.06688L3.10184 4.58151C 3.10184 2.62848 4.36417 0.834961 7.27284 0.834961C 8.45052 0.834961 9.32136 0.947861 9.32136 0.947861L9.32136 0.947861L9.25274 3.66515C 9.25274 3.66515 8.36462 3.6565 7.39547 3.6565C 6.34656 3.6565 6.17851 4.13988 6.17851 4.94217L6.17851 4.94217L6.17851 7.06688L9.33612 7.06688L9.19872 9.97671L6.17851 9.97671L6.17851 18.0585L3.10184 18.0585z" stroke="none" fill="#FFFFFF" fill-rule="nonzero" />
</g>
</svg>