<svg width="145" height="116" viewBox="0 0 145 116" fill="none" xmlns="http://www.w3.org/2000/svg">
<circle cx="2.5" cy="2.5" r="2.5" fill="#6D7074" fill-opacity="0.35"/>
<circle cx="2.5" cy="32.5" r="2.5" fill="#6D7074" fill-opacity="0.35"/>
<circle cx="2.5" cy="62.5" r="2.5" fill="#6D7074" fill-opacity="0.35"/>
<circle cx="2.5" cy="92.5" r="2.5" fill="#6D7074" fill-opacity="0.35"/>
<circle cx="22.5" cy="2.5" r="2.5" fill="#6D7074" fill-opacity="0.35"/>
<circle cx="22.5" cy="32.5" r="2.5" fill="#6D7074" fill-opacity="0.35"/>
<circle cx="22.5" cy="62.5" r="2.5" fill="#6D7074" fill-opacity="0.35"/>
<circle cx="22.5" cy="92.5" r="2.5" fill="#6D7074" fill-opacity="0.35"/>
<circle cx="42.5" cy="2.5" r="2.5" fill="#6D7074" fill-opacity="0.35"/>
<circle cx="42.5" cy="32.5" r="2.5" fill="#6D7074" fill-opacity="0.35"/>
<circle cx="42.5" cy="62.5" r="2.5" fill="#6D7074" fill-opacity="0.35"/>
<circle cx="42.5" cy="92.5" r="2.5" fill="#6D7074" fill-opacity="0.35"/>
<circle cx="62.5" cy="2.5" r="2.5" fill="#6D7074" fill-opacity="0.35"/>
<circle cx="62.5" cy="32.5" r="2.5" fill="#6D7074" fill-opacity="0.35"/>
<circle cx="62.5" cy="62.5" r="2.5" fill="#6D7074" fill-opacity="0.35"/>
<circle cx="62.5" cy="92.5" r="2.5" fill="#6D7074" fill-opacity="0.35"/>
<circle cx="82.5" cy="2.5" r="2.5" fill="#6D7074" fill-opacity="0.35"/>
<circle cx="82.5" cy="32.5" r="2.5" fill="#6D7074" fill-opacity="0.35"/>
<circle cx="82.5" cy="62.5" r="2.5" fill="#6D7074" fill-opacity="0.35"/>
<circle cx="82.5" cy="92.5" r="2.5" fill="#6D7074" fill-opacity="0.35"/>
<circle cx="102.5" cy="2.5" r="2.5" fill="#6D7074" fill-opacity="0.35"/>
<circle cx="102.5" cy="32.5" r="2.5" fill="#6D7074" fill-opacity="0.35"/>
<circle cx="102.5" cy="62.5" r="2.5" fill="#6D7074" fill-opacity="0.35"/>
<circle cx="102.5" cy="92.5" r="2.5" fill="#6D7074" fill-opacity="0.35"/>
<circle cx="122.5" cy="2.5" r="2.5" fill="#6D7074" fill-opacity="0.35"/>
<circle cx="122.5" cy="32.5" r="2.5" fill="#6D7074" fill-opacity="0.35"/>
<circle cx="122.5" cy="62.5" r="2.5" fill="#6D7074" fill-opacity="0.35"/>
<circle cx="122.5" cy="92.5" r="2.5" fill="#6D7074" fill-opacity="0.35"/>
<circle cx="142.5" cy="2.5" r="2.5" fill="#6D7074" fill-opacity="0.35"/>
<circle cx="142.5" cy="32.5" r="2.5" fill="#6D7074" fill-opacity="0.35"/>
<circle cx="142.5" cy="62.5" r="2.5" fill="#6D7074" fill-opacity="0.35"/>
<circle cx="142.5" cy="92.5" r="2.5" fill="#6D7074" fill-opacity="0.35"/>
</svg>
