<svg width="100" height="100" viewBox="0 0 100 100" fill="none" xmlns="http://www.w3.org/2000/svg">
<path d="M100 50C100 77.6142 77.6142 100 50 100C22.3858 100 0 77.6142 0 50C0 22.3858 22.3858 0 50 0C50 67 100 22.3858 100 50Z" fill="#FEDCFF"/>
<path d="M40 63.75C42.0711 63.75 43.75 62.0711 43.75 60C43.75 57.9289 42.0711 56.25 40 56.25C37.9289 56.25 36.25 57.9289 36.25 60C36.25 62.0711 37.9289 63.75 40 63.75Z" stroke="#FC00FF" stroke-width="2" stroke-linecap="round" stroke-linejoin="round"/>
<path d="M48.4087 63.4088C48.2574 63.7516 48.2122 64.1319 48.279 64.5006C48.3459 64.8694 48.5217 65.2096 48.7838 65.4775L48.8525 65.545C49.0642 65.7559 49.2322 66.0065 49.3468 66.2825C49.4614 66.5584 49.5204 66.8543 49.5204 67.1531C49.5204 67.4519 49.4614 67.7478 49.3468 68.0238C49.2322 68.2997 49.0642 68.5504 48.8525 68.7613C48.6414 68.9726 48.3908 69.1403 48.1148 69.2548C47.8389 69.3692 47.5431 69.4281 47.2444 69.4281C46.9457 69.4281 46.6499 69.3692 46.3739 69.2548C46.098 69.1403 45.8473 68.9726 45.6363 68.7613L45.5675 68.6925C45.2997 68.4307 44.9597 68.255 44.5912 68.1882C44.2227 68.1213 43.8427 68.1664 43.5 68.3175C43.1636 68.4614 42.8767 68.7006 42.6746 69.0055C42.4725 69.3105 42.364 69.6679 42.3625 70.0338V70.2275C42.3625 70.8302 42.1231 71.4082 41.6969 71.8344C41.2707 72.2606 40.6927 72.5 40.09 72.5C39.4873 72.5 38.9093 72.2606 38.4831 71.8344C38.0569 71.4082 37.8175 70.8302 37.8175 70.2275V70.125C37.8088 69.7489 37.6873 69.3842 37.4686 69.0781C37.2499 68.772 36.9442 68.5388 36.5912 68.4088C36.2484 68.2574 35.8681 68.2122 35.4994 68.279C35.1306 68.3459 34.7904 68.5217 34.5225 68.7838L34.455 68.8525C34.1372 69.1715 33.7319 69.3889 33.2904 69.4771C32.8488 69.5654 32.391 69.5205 31.9751 69.3481C31.5591 69.1758 31.2037 68.8837 30.954 68.5091C30.7043 68.1344 30.5715 67.694 30.5725 67.2438C30.5725 66.9452 30.6314 66.6495 30.7457 66.3737C30.86 66.0979 31.0275 65.8473 31.2388 65.6363L31.3063 65.5675C31.5681 65.2997 31.7437 64.9597 31.8106 64.5912C31.8774 64.2227 31.8324 63.8427 31.6812 63.5C31.5374 63.1638 31.2985 62.877 30.9938 62.6749C30.689 62.4728 30.3319 62.3642 29.9663 62.3625H29.7725C29.1698 62.3625 28.5918 62.1231 28.1656 61.6969C27.7394 61.2707 27.5 60.6927 27.5 60.09C27.5 59.4873 27.7394 58.9093 28.1656 58.4831C28.5918 58.0569 29.1698 57.8175 29.7725 57.8175H29.875C30.2511 57.8089 30.6158 57.6873 30.9219 57.4686C31.228 57.2499 31.4612 56.9442 31.5912 56.5913C31.7426 56.2484 31.7878 55.8681 31.721 55.4994C31.6541 55.1306 31.4783 54.7904 31.2163 54.5225L31.1475 54.455C30.9362 54.2438 30.7686 53.9931 30.6543 53.7171C30.5399 53.4412 30.481 53.1454 30.481 52.8467C30.4809 52.548 30.5397 52.2522 30.6539 51.9762C30.7682 51.7002 30.9357 51.4494 31.1469 51.2381C31.3581 51.0269 31.6088 50.8593 31.8847 50.7449C32.1607 50.6305 32.4565 50.5716 32.7552 50.5716C33.0539 50.5715 33.3497 50.6303 33.6257 50.7446C33.9017 50.8588 34.1525 51.0263 34.3638 51.2375L34.4313 51.305C34.6991 51.5671 35.0394 51.7429 35.4081 51.8097C35.7769 51.8766 36.1572 51.8314 36.5 51.68H36.5912C36.9272 51.536 37.2137 51.297 37.4156 50.9923C37.6175 50.6876 37.7259 50.3305 37.7275 49.965V49.7713C37.7275 49.1686 37.9669 48.5905 38.3931 48.1644C38.8193 47.7382 39.3973 47.4988 40 47.4988C40.6027 47.4988 41.1807 47.7382 41.6069 48.1644C42.0331 48.5905 42.2725 49.1686 42.2725 49.7713V49.875C42.2738 50.2409 42.3823 50.5984 42.5844 50.9034C42.7865 51.2084 43.0735 51.4475 43.41 51.5913C43.7527 51.7424 44.1327 51.7874 44.5012 51.7206C44.8697 51.6537 45.2097 51.4781 45.4775 51.2163L45.545 51.1475C45.756 50.936 46.0066 50.7681 46.2826 50.6536C46.5585 50.5391 46.8544 50.4802 47.1531 50.4802C47.4519 50.4802 47.7477 50.5391 48.0237 50.6536C48.2996 50.7681 48.5503 50.936 48.7613 51.1475C48.9725 51.3587 49.1401 51.6094 49.2544 51.8853C49.3687 52.1612 49.4276 52.457 49.4276 52.7556C49.4276 53.0543 49.3687 53.3501 49.2544 53.626C49.1401 53.9019 48.9725 54.1526 48.7613 54.3638L48.6925 54.4313C48.4304 54.6991 48.2546 55.0394 48.1878 55.4081C48.1209 55.7769 48.1661 56.1572 48.3175 56.5V56.5913C48.4616 56.9274 48.7008 57.214 49.0058 57.4159C49.3107 57.6178 49.668 57.7261 50.0338 57.7275H50.2275C50.8302 57.7275 51.4082 57.9669 51.8344 58.3931C52.2606 58.8193 52.5 59.3973 52.5 60C52.5 60.6027 52.2606 61.1807 51.8344 61.6069C51.4082 62.0331 50.8302 62.2725 50.2275 62.2725H50.125C49.7591 62.2738 49.4016 62.3823 49.0966 62.5844C48.7916 62.7865 48.5525 63.0735 48.4087 63.41V63.4088Z" stroke="#FC00FF" stroke-width="2" stroke-linecap="round" stroke-linejoin="round"/>
</svg>
