<svg width="36" height="36" viewBox="0 0 36 36" fill="none" xmlns="http://www.w3.org/2000/svg">
<path fill-rule="evenodd" clip-rule="evenodd" d="M11.1975 1.599C12.957 1.518 13.518 1.5 18 1.5C22.482 1.5 23.043 1.5195 24.801 1.599C26.559 1.6785 27.759 1.959 28.809 2.3655C29.9085 2.781 30.906 3.4305 31.731 4.2705C32.571 5.094 33.219 6.09 33.633 7.191C34.041 8.241 34.32 9.441 34.401 11.196C34.482 12.9585 34.5 13.5195 34.5 18C34.5 22.482 34.4805 23.043 34.401 24.8025C34.3215 26.5575 34.041 27.7575 33.633 28.8075C33.219 29.9086 32.5699 30.9063 31.731 31.731C30.906 32.571 29.9085 33.219 28.809 33.633C27.759 34.041 26.559 34.32 24.804 34.401C23.043 34.482 22.482 34.5 18 34.5C13.518 34.5 12.957 34.4805 11.1975 34.401C9.4425 34.3215 8.2425 34.041 7.1925 33.633C6.09138 33.2189 5.09373 32.5699 4.269 31.731C3.42957 30.907 2.77997 29.9098 2.3655 28.809C1.959 27.759 1.68 26.559 1.599 24.804C1.518 23.0415 1.5 22.4805 1.5 18C1.5 13.518 1.5195 12.957 1.599 11.199C1.6785 9.441 1.959 8.241 2.3655 7.191C2.78058 6.09012 3.43068 5.09297 4.2705 4.269C5.09406 3.42975 6.09071 2.78017 7.191 2.3655C8.241 1.959 9.441 1.68 11.196 1.599H11.1975ZM24.6675 4.569C22.9275 4.4895 22.4055 4.473 18 4.473C13.5945 4.473 13.0725 4.4895 11.3325 4.569C9.723 4.6425 8.85 4.911 8.268 5.1375C7.4985 5.4375 6.948 5.793 6.3705 6.3705C5.82307 6.90308 5.40177 7.55142 5.1375 8.268C4.911 8.85 4.6425 9.723 4.569 11.3325C4.4895 13.0725 4.473 13.5945 4.473 18C4.473 22.4055 4.4895 22.9275 4.569 24.6675C4.6425 26.277 4.911 27.15 5.1375 27.732C5.4015 28.4475 5.823 29.097 6.3705 29.6295C6.903 30.177 7.5525 30.5985 8.268 30.8625C8.85 31.089 9.723 31.3575 11.3325 31.431C13.0725 31.5105 13.593 31.527 18 31.527C22.407 31.527 22.9275 31.5105 24.6675 31.431C26.277 31.3575 27.15 31.089 27.732 30.8625C28.5015 30.5625 29.052 30.207 29.6295 29.6295C30.177 29.097 30.5985 28.4475 30.8625 27.732C31.089 27.15 31.3575 26.277 31.431 24.6675C31.5105 22.9275 31.527 22.4055 31.527 18C31.527 13.5945 31.5105 13.0725 31.431 11.3325C31.3575 9.723 31.089 8.85 30.8625 8.268C30.5625 7.4985 30.207 6.948 29.6295 6.3705C29.0969 5.82311 28.4486 5.40182 27.732 5.1375C27.15 4.911 26.277 4.6425 24.6675 4.569ZM15.8925 23.0865C17.0695 23.5764 18.3801 23.6426 19.6004 23.2736C20.8207 22.9046 21.8751 22.1234 22.5834 21.0634C23.2917 20.0034 23.6101 18.7303 23.4841 17.4617C23.3581 16.193 22.7955 15.0075 21.8925 14.1075C21.3169 13.5322 20.6208 13.0917 19.8545 12.8177C19.0882 12.5437 18.2706 12.443 17.4607 12.5229C16.6508 12.6028 15.8687 12.8613 15.1707 13.2797C14.4727 13.6981 13.8761 14.2661 13.424 14.9428C12.9718 15.6194 12.6753 16.3879 12.5558 17.1929C12.4363 17.9979 12.4967 18.8194 12.7328 19.5983C12.9689 20.3771 13.3747 21.0939 13.9211 21.6971C14.4674 22.3003 15.1407 22.7748 15.8925 23.0865ZM12.003 12.003C12.7905 11.2155 13.7255 10.5908 14.7544 10.1645C15.7834 9.73833 16.8863 9.51896 18 9.51896C19.1137 9.51896 20.2166 9.73833 21.2456 10.1645C22.2745 10.5908 23.2095 11.2155 23.997 12.003C24.7845 12.7905 25.4092 13.7255 25.8355 14.7544C26.2617 15.7834 26.481 16.8863 26.481 18C26.481 19.1137 26.2617 20.2166 25.8355 21.2456C25.4092 22.2745 24.7845 23.2095 23.997 23.997C22.4065 25.5875 20.2493 26.481 18 26.481C15.7507 26.481 13.5935 25.5875 12.003 23.997C10.4125 22.4065 9.51896 20.2493 9.51896 18C9.51896 15.7507 10.4125 13.5935 12.003 12.003ZM28.362 10.782C28.5572 10.5979 28.7134 10.3765 28.8215 10.131C28.9295 9.8854 28.9872 9.62065 28.9911 9.3524C28.995 9.08414 28.9451 8.81782 28.8442 8.56921C28.7434 8.32061 28.5936 8.09477 28.4039 7.90506C28.2142 7.71535 27.9884 7.56564 27.7398 7.46478C27.4912 7.36392 27.2249 7.31396 26.9566 7.31787C26.6883 7.32178 26.4236 7.37948 26.178 7.48754C25.9325 7.59561 25.7111 7.75184 25.527 7.947C25.169 8.32654 24.9729 8.83068 24.9806 9.3524C24.9882 9.87411 25.1988 10.3723 25.5677 10.7413C25.9367 11.1102 26.4349 11.3208 26.9566 11.3284C27.4783 11.3361 27.9825 11.14 28.362 10.782Z" fill="white"/>
</svg>
