<svg width="1296" height="694" viewBox="0 0 1296 694" fill="none" xmlns="http://www.w3.org/2000/svg">
<mask id="mask0_5_8044" style="mask-type:alpha" maskUnits="userSpaceOnUse" x="0" y="0" width="1296" height="694">
<rect width="1296" height="694" rx="30" fill="#0066FF"/>
</mask>
<g mask="url(#mask0_5_8044)">
<path d="M606.011 546.176C393.623 417.109 89.2299 501.954 -38.9168 561.503C-40.4849 562.232 -41.6088 563.542 -42.1609 565.18L-102.204 743.371C-103.582 747.463 -100.561 751.708 -96.2428 751.744L1350.8 763.956C1353.85 763.981 1356.49 761.829 1357.08 758.832L1400.76 536.461C1401.09 534.788 1400.73 533.054 1399.77 531.648L1312.72 404.698C1309.34 399.775 1298.1 400.634 1294.28 405.223C1233.21 478.646 852.341 695.868 606.011 546.176Z" fill="url(#paint0_linear_5_8044)"/>
<path d="M690.264 546.176C902.652 417.109 1207.05 501.954 1335.19 561.503C1336.76 562.232 1337.88 563.542 1338.44 565.18L1398.48 743.371C1399.86 747.463 1396.84 751.708 1392.52 751.744L-54.5245 763.956C-57.5781 763.981 -60.2172 761.829 -60.8058 758.832L-104.486 536.461C-104.814 534.788 -104.456 533.054 -103.492 531.648L-16.441 404.698C-13.0652 399.775 -1.82153 400.634 1.99585 405.223C63.0697 478.646 443.935 695.868 690.264 546.176Z" fill="url(#paint1_linear_5_8044)"/>
</g>
<defs>
<linearGradient id="paint0_linear_5_8044" x1="648.137" y1="390" x2="648.137" y2="764" gradientUnits="userSpaceOnUse">
<stop stop-color="#5302FF"/>
<stop offset="1" stop-color="#0066FF" stop-opacity="0"/>
</linearGradient>
<linearGradient id="paint1_linear_5_8044" x1="648.138" y1="390" x2="648.138" y2="764" gradientUnits="userSpaceOnUse">
<stop stop-color="#FF0000"/>
<stop offset="1" stop-color="#0066FF" stop-opacity="0"/>
</linearGradient>
</defs>
</svg>
