<svg width="636" height="810" viewBox="0 0 636 810" fill="none" xmlns="http://www.w3.org/2000/svg">
<rect width="636" height="810" rx="30" fill="#D6FFEB"/>
<g filter="url(#filter0_dddddd_5_7863)">
<rect width="110.998" height="45.5862" rx="12.9057" transform="matrix(0.866025 0.5 -0.866025 0.5 539.71 682.809)" fill="white"/>
</g>
<path d="M511.408 712.055C507.819 709.983 506.317 707.162 506.901 704.463C507.322 706.406 508.824 708.286 511.408 709.777L585.181 752.371C591.354 755.935 601.362 755.935 607.535 752.371L624.66 742.483C627.244 740.992 628.746 739.112 629.167 737.169C629.751 739.868 628.249 742.689 624.66 744.761L607.535 754.648C601.362 758.212 591.354 758.212 585.181 754.648L511.408 712.055Z" fill="url(#paint0_linear_5_7863)"/>
<rect x="-9.04987e-09" y="0.151832" width="110.694" height="45.2825" rx="12.7539" transform="matrix(0.866025 0.5 -0.866025 0.5 539.841 680.608)" fill="url(#paint1_linear_5_7863)" fill-opacity="0.65" stroke="#F9F9F9" stroke-width="0.303663"/>
<path d="M555.499 707.965L545.79 710.862L545.001 710.406L547.578 706.732L541.277 708.256L540.509 707.813L545.527 702.207L546.737 702.906L543.549 706.386C543.43 706.511 543.311 706.629 543.192 706.738C543.079 706.851 542.967 706.957 542.855 707.054C543.03 706.993 543.22 706.932 543.423 706.872C543.626 706.811 543.851 706.75 544.096 706.689L548.746 705.536L549.766 706.125L547.725 708.785C547.613 708.939 547.504 709.074 547.399 709.192C547.301 709.305 547.206 709.408 547.115 709.501C547.263 709.441 547.431 709.376 547.62 709.307C547.817 709.242 548.044 709.171 548.304 709.094L554.279 707.26L555.499 707.965ZM557.678 711.215C558.175 711.502 558.459 711.783 558.53 712.059C558.6 712.334 558.516 712.601 558.277 712.86C558.046 713.124 557.72 713.377 557.299 713.62L553.933 715.563L552.849 714.938L556.142 713.037C556.408 712.883 556.612 712.725 556.752 712.563C556.892 712.401 556.938 712.237 556.889 712.071C556.839 711.905 556.654 711.741 556.331 711.579C556.051 711.417 555.742 711.308 555.405 711.251C555.069 711.194 554.739 711.186 554.417 711.227C554.094 711.267 553.813 711.356 553.575 711.494L550.23 713.425L549.146 712.8L556.931 708.306L558.014 708.931L554.879 710.741C555.307 710.688 555.781 710.698 556.299 710.771C556.825 710.84 557.285 710.988 557.678 711.215ZM566.069 716.193L560.546 719.381L559.452 718.75L560.304 718.258C559.905 718.294 559.438 718.276 558.905 718.203C558.372 718.13 557.889 717.968 557.454 717.717C556.991 717.45 556.689 717.134 556.549 716.77C556.416 716.41 556.454 716.039 556.665 715.659C556.875 715.278 557.261 714.926 557.822 714.602C558.383 714.278 558.993 714.059 559.652 713.946C560.318 713.829 560.974 713.818 561.619 713.916C562.272 714.009 562.857 714.205 563.376 714.505C563.762 714.727 564.014 714.97 564.133 715.233C564.26 715.501 564.298 715.75 564.249 715.98L564.975 715.561L566.069 716.193ZM558.706 717.286C559.042 717.481 559.417 717.604 559.831 717.657C560.252 717.705 560.673 717.689 561.093 717.608C561.521 717.523 561.914 717.377 562.272 717.171C562.622 716.968 562.868 716.746 563.008 716.503C563.148 716.26 563.173 716.019 563.081 715.78C562.997 715.537 562.787 715.318 562.45 715.124C562.128 714.938 561.76 714.818 561.346 714.766C560.932 714.713 560.515 714.727 560.094 714.808C559.673 714.889 559.284 715.033 558.926 715.24C558.569 715.446 558.316 715.673 558.169 715.92C558.029 716.163 558.001 716.406 558.085 716.649C558.176 716.887 558.383 717.1 558.706 717.286ZM563.826 721.275L562.743 720.65L567.214 718.069L566.067 717.407L567.119 716.799L568.265 717.461L569.675 716.647L570.759 717.273L569.349 718.087L570.632 718.828L569.58 719.435L568.297 718.694L563.826 721.275ZM573.56 722.194C573.56 721.967 573.497 721.745 573.371 721.526C573.251 721.312 573.087 721.144 572.876 721.022C572.729 720.937 572.564 720.862 572.382 720.797C572.207 720.737 572.021 720.706 571.824 720.706C571.635 720.702 571.449 720.753 571.267 720.858C571.021 721.008 570.955 721.176 571.067 721.362C571.186 721.552 571.369 721.767 571.614 722.006C571.824 722.216 572.007 722.435 572.161 722.662C572.322 722.885 572.378 723.111 572.329 723.342C572.294 723.573 572.077 723.804 571.677 724.034C571.333 724.233 570.941 724.346 570.499 724.375C570.064 724.407 569.626 724.373 569.184 724.271C568.756 724.17 568.374 724.022 568.037 723.828C567.638 723.597 567.312 723.328 567.059 723.02C566.821 722.712 566.74 722.378 566.817 722.018L568.185 722.079C568.157 722.314 568.199 722.536 568.311 722.747C568.437 722.957 568.676 723.164 569.026 723.366C569.159 723.443 569.314 723.508 569.489 723.561C569.671 723.609 569.857 723.632 570.047 723.628C570.25 723.623 570.439 723.571 570.615 723.47C570.783 723.372 570.86 723.267 570.846 723.154C570.846 723.04 570.79 722.919 570.678 722.789C570.573 722.656 570.443 722.516 570.289 722.37C570.071 722.148 569.875 721.917 569.699 721.678C569.538 721.439 569.472 721.198 569.5 720.955C569.542 720.712 569.759 720.478 570.152 720.251C570.481 720.06 570.853 719.951 571.267 719.923C571.695 719.894 572.122 719.931 572.55 720.032C572.985 720.129 573.374 720.277 573.718 720.475C574.047 720.666 574.335 720.913 574.58 721.216C574.826 721.52 574.921 721.834 574.864 722.158L573.56 722.194ZM576.469 728.574L577.605 727.117L574.523 725.337L571.998 725.993L570.841 725.325L581.055 722.72L582.212 723.388L577.678 729.273L576.469 728.574ZM578.068 724.42L576.037 724.949L578.289 726.248L579.225 725.04C579.379 724.845 579.551 724.641 579.74 724.426C579.937 724.208 580.133 723.989 580.329 723.77C579.937 723.884 579.544 723.997 579.151 724.11C578.765 724.228 578.404 724.331 578.068 724.42ZM587.2 728.284C587.691 728.567 588.007 728.891 588.147 729.256C588.301 729.62 588.277 729.991 588.073 730.367C587.87 730.744 587.488 731.094 586.927 731.418C586.373 731.738 585.766 731.958 585.107 732.08C584.455 732.197 583.813 732.215 583.182 732.134C582.551 732.053 581.997 731.875 581.52 731.6C581.127 731.373 580.854 731.118 580.7 730.835C580.552 730.555 580.496 730.3 580.531 730.069L577.481 731.831L576.387 731.199L584.234 726.668L585.328 727.3L584.518 727.768C584.911 727.727 585.36 727.747 585.864 727.828C586.369 727.909 586.815 728.061 587.2 728.284ZM586.054 728.776C585.724 728.586 585.349 728.462 584.928 728.405C584.514 728.353 584.094 728.365 583.666 728.442C583.252 728.519 582.866 728.66 582.509 728.867C582.158 729.069 581.913 729.292 581.772 729.535C581.639 729.782 581.615 730.027 581.699 730.27C581.797 730.513 582.011 730.729 582.341 730.92C582.67 731.11 583.042 731.232 583.456 731.284C583.876 731.333 584.297 731.317 584.718 731.236C585.146 731.159 585.535 731.019 585.885 730.817C586.243 730.61 586.485 730.385 586.611 730.142C586.752 729.899 586.776 729.659 586.685 729.42C586.594 729.181 586.383 728.966 586.054 728.776ZM593.837 732.115C594.327 732.399 594.643 732.723 594.783 733.087C594.938 733.451 594.913 733.822 594.71 734.198C594.506 734.575 594.124 734.925 593.563 735.249C593.009 735.569 592.402 735.79 591.743 735.911C591.091 736.029 590.449 736.047 589.818 735.966C589.187 735.885 588.633 735.707 588.156 735.431C587.763 735.205 587.49 734.95 587.336 734.666C587.188 734.387 587.132 734.132 587.167 733.901L584.117 735.662L583.023 735.03L590.87 730.5L591.964 731.131L591.154 731.599C591.547 731.559 591.996 731.579 592.501 731.66C593.006 731.741 593.451 731.893 593.837 732.115ZM592.69 732.607C592.36 732.417 591.985 732.293 591.564 732.237C591.151 732.184 590.73 732.196 590.302 732.273C589.888 732.35 589.503 732.492 589.145 732.698C588.794 732.901 588.549 733.123 588.409 733.366C588.275 733.613 588.251 733.858 588.335 734.101C588.433 734.344 588.647 734.561 588.977 734.751C589.306 734.941 589.678 735.063 590.092 735.116C590.512 735.164 590.933 735.148 591.354 735.067C591.782 734.99 592.171 734.85 592.522 734.648C592.879 734.441 593.121 734.217 593.247 733.974C593.388 733.731 593.412 733.49 593.321 733.251C593.23 733.012 593.02 732.798 592.69 732.607Z" fill="#333333"/>
<g filter="url(#filter1_dddddd_5_7863)">
<rect width="110.998" height="45.5862" rx="12.9057" transform="matrix(0.866025 0.5 -0.866025 0.5 474.574 720.312)" fill="white"/>
</g>
<path d="M446.272 749.558C442.683 747.486 441.181 744.665 441.765 741.966C442.186 743.909 443.688 745.788 446.272 747.28L520.046 789.873C526.218 793.437 536.226 793.437 542.399 789.873L559.524 779.986C562.108 778.494 563.61 776.615 564.031 774.672C564.616 777.371 563.114 780.191 559.524 782.263L542.399 792.151C536.226 795.715 526.218 795.715 520.046 792.151L446.272 749.558Z" fill="url(#paint2_linear_5_7863)"/>
<rect x="-9.04987e-09" y="0.151832" width="110.694" height="45.2825" rx="12.7539" transform="matrix(0.866025 0.5 -0.866025 0.5 474.706 718.11)" fill="url(#paint3_linear_5_7863)" fill-opacity="0.65" stroke="#F9F9F9" stroke-width="0.303663"/>
<path d="M493.64 747.359L498.279 750.038L497.185 750.669L493.682 748.647L491.736 749.77L494.661 751.459L493.567 752.09L490.642 750.402L488.507 751.635L492.01 753.657L490.916 754.289L486.277 751.611L493.64 747.359ZM500.891 753.562C501.346 753.825 501.606 754.096 501.669 754.375C501.739 754.651 501.655 754.926 501.417 755.201C501.69 755.157 502.009 755.139 502.374 755.147C502.746 755.151 503.117 755.191 503.489 755.268C503.861 755.345 504.19 755.467 504.478 755.633C504.955 755.908 505.221 756.183 505.277 756.459C505.34 756.73 505.249 756.997 505.004 757.26C504.772 757.523 504.443 757.779 504.015 758.026L500.701 759.939L499.607 759.307L502.858 757.43C503.264 757.196 503.517 756.961 503.615 756.726C503.713 756.491 503.548 756.25 503.121 756.003C502.714 755.768 502.248 755.649 501.722 755.645C501.21 755.641 500.771 755.744 500.407 755.955L497.104 757.862L496.01 757.23L499.281 755.341C499.674 755.114 499.912 754.88 499.996 754.637C500.081 754.394 499.93 754.161 499.544 753.938C499.278 753.784 498.98 753.681 498.65 753.628C498.32 753.576 497.998 753.572 497.682 753.616C497.374 753.657 497.1 753.746 496.862 753.884L493.538 755.803L492.444 755.171L497.966 751.983L499.06 752.614L498.177 753.124C498.597 753.076 499.057 753.082 499.555 753.143C500.067 753.203 500.512 753.343 500.891 753.562ZM512.818 760.557L507.296 763.746L506.202 763.114L507.054 762.622C506.654 762.659 506.188 762.641 505.655 762.568C505.122 762.495 504.638 762.333 504.203 762.082C503.74 761.815 503.439 761.499 503.298 761.134C503.165 760.774 503.204 760.404 503.414 760.023C503.625 759.642 504.01 759.29 504.571 758.966C505.132 758.642 505.742 758.424 506.402 758.31C507.068 758.193 507.724 758.183 508.369 758.28C509.021 758.373 509.606 758.569 510.125 758.869C510.511 759.092 510.764 759.335 510.883 759.598C511.009 759.865 511.048 760.114 510.999 760.345L511.724 759.926L512.818 760.557ZM505.455 761.651C505.792 761.845 506.167 761.968 506.58 762.021C507.001 762.07 507.422 762.054 507.843 761.973C508.271 761.888 508.663 761.742 509.021 761.535C509.372 761.333 509.617 761.11 509.757 760.867C509.898 760.624 509.922 760.383 509.831 760.144C509.747 759.902 509.536 759.683 509.2 759.489C508.877 759.302 508.509 759.183 508.095 759.13C507.681 759.078 507.264 759.092 506.843 759.173C506.423 759.254 506.033 759.397 505.676 759.604C505.318 759.81 505.066 760.037 504.918 760.284C504.778 760.527 504.75 760.77 504.834 761.013C504.925 761.252 505.132 761.464 505.455 761.651ZM516.256 761.158C516.011 761.016 515.891 760.874 515.898 760.732C515.905 760.591 516.011 760.461 516.214 760.344C516.389 760.243 516.607 760.186 516.866 760.174C517.126 760.162 517.378 760.226 517.624 760.368C517.869 760.51 517.988 760.651 517.981 760.793C517.974 760.935 517.869 761.064 517.666 761.182C517.49 761.283 517.273 761.34 517.014 761.352C516.754 761.364 516.502 761.299 516.256 761.158ZM510.092 765.36L509.008 764.735L514.531 761.546L515.614 762.172L510.092 765.36ZM511.736 766.31L519.52 761.815L520.604 762.441L512.82 766.935L511.736 766.31Z" fill="#333333"/>
<g filter="url(#filter2_bdddddddd_5_7863)">
<rect width="165.902" height="99.4055" rx="12.9057" transform="matrix(0.866025 0.5 -0.866025 0.5 390.088 564)" fill="url(#paint4_linear_5_7863)" fill-opacity="0.65" shape-rendering="crispEdges"/>
<rect x="1.35748e-08" y="-0.227747" width="166.357" height="99.861" rx="13.1334" transform="matrix(0.866025 0.5 -0.866025 0.5 389.891 563.886)" stroke="#EBEEF5" stroke-width="0.455495" shape-rendering="crispEdges"/>
</g>
<path d="M366.855 595.86L371.494 598.539L370.4 599.17L366.897 597.148L364.951 598.271L367.875 599.96L366.781 600.591L363.857 598.903L361.721 600.136L365.224 602.158L364.13 602.79L359.491 600.112L366.855 595.86ZM367.951 602.142L369.024 601.522L372.054 603.271L370.981 603.891L367.951 602.142ZM378.245 604.453C378.701 604.716 378.96 604.987 379.023 605.267C379.093 605.542 379.009 605.817 378.771 606.093C379.044 606.048 379.363 606.03 379.728 606.038C380.1 606.042 380.471 606.082 380.843 606.159C381.215 606.236 381.544 606.358 381.832 606.524C382.309 606.799 382.575 607.074 382.631 607.35C382.695 607.621 382.603 607.888 382.358 608.151C382.126 608.415 381.797 608.67 381.369 608.917L378.056 610.83L376.962 610.198L380.212 608.321C380.619 608.087 380.871 607.852 380.969 607.617C381.068 607.382 380.903 607.141 380.475 606.894C380.068 606.659 379.602 606.54 379.076 606.536C378.564 606.532 378.126 606.635 377.761 606.846L374.458 608.753L373.364 608.121L376.635 606.232C377.028 606.006 377.267 605.771 377.351 605.528C377.435 605.285 377.284 605.052 376.898 604.829C376.632 604.675 376.334 604.572 376.004 604.52C375.675 604.467 375.352 604.463 375.037 604.507C374.728 604.548 374.454 604.637 374.216 604.775L370.892 606.694L369.798 606.062L375.321 602.874L376.415 603.505L375.531 604.016C375.952 603.967 376.411 603.973 376.909 604.034C377.421 604.094 377.866 604.234 378.245 604.453ZM390.173 611.449L384.65 614.637L383.556 614.005L384.408 613.513C384.008 613.55 383.542 613.532 383.009 613.459C382.476 613.386 381.992 613.224 381.557 612.973C381.095 612.706 380.793 612.39 380.653 612.026C380.519 611.665 380.558 611.295 380.768 610.914C380.979 610.534 381.365 610.181 381.926 609.857C382.487 609.533 383.097 609.315 383.756 609.201C384.422 609.084 385.078 609.074 385.723 609.171C386.375 609.264 386.961 609.461 387.48 609.76C387.865 609.983 388.118 610.226 388.237 610.489C388.363 610.756 388.402 611.005 388.353 611.236L389.079 610.817L390.173 611.449ZM382.809 612.542C383.146 612.736 383.521 612.86 383.935 612.912C384.355 612.961 384.776 612.945 385.197 612.864C385.625 612.779 386.017 612.633 386.375 612.426C386.726 612.224 386.971 612.001 387.111 611.758C387.252 611.515 387.276 611.274 387.185 611.036C387.101 610.793 386.891 610.574 386.554 610.38C386.231 610.193 385.863 610.074 385.449 610.021C385.036 609.969 384.618 609.983 384.198 610.064C383.777 610.145 383.388 610.289 383.03 610.495C382.672 610.702 382.42 610.928 382.273 611.175C382.132 611.418 382.104 611.661 382.189 611.904C382.28 612.143 382.487 612.356 382.809 612.542ZM393.61 612.049C393.365 611.907 393.246 611.765 393.253 611.624C393.26 611.482 393.365 611.352 393.568 611.235C393.744 611.134 393.961 611.077 394.221 611.065C394.48 611.053 394.732 611.117 394.978 611.259C395.223 611.401 395.343 611.543 395.336 611.684C395.329 611.826 395.223 611.956 395.02 612.073C394.845 612.174 394.627 612.231 394.368 612.243C394.108 612.255 393.856 612.19 393.61 612.049ZM387.446 616.251L386.363 615.626L391.885 612.437L392.969 613.063L387.446 616.251ZM389.091 617.201L396.875 612.707L397.958 613.332L390.174 617.826L389.091 617.201ZM403.421 616.972L401.906 620.628L408.28 619.777L409.332 620.385L401.969 624.636L400.833 623.98L403.852 622.237C404.294 621.982 404.718 621.745 405.125 621.527C405.545 621.308 405.973 621.097 406.408 620.895L400.896 621.575L400.202 621.174L401.422 618.028C401.071 618.279 400.707 618.522 400.328 618.757C399.949 618.992 399.539 619.237 399.097 619.492L396.078 621.235L394.942 620.579L402.305 616.328L403.421 616.972ZM409.23 627.99L409.219 627.984C408.778 627.98 408.276 627.913 407.715 627.784C407.154 627.654 406.66 627.466 406.232 627.219C405.657 626.887 405.268 626.524 405.064 626.132C404.875 625.739 404.868 625.35 405.043 624.966C405.226 624.577 405.587 624.227 406.127 623.915C406.744 623.559 407.399 623.33 408.094 623.229C408.795 623.123 409.475 623.127 410.134 623.241C410.801 623.35 411.386 623.551 411.891 623.842C412.354 624.109 412.659 624.419 412.806 624.771C412.961 625.119 412.95 625.474 412.775 625.834C412.599 626.194 412.245 626.528 411.712 626.836L411.239 627.097L407.01 624.656C406.575 624.98 406.383 625.326 406.432 625.694C406.495 626.063 406.793 626.401 407.326 626.709C407.712 626.931 408.094 627.071 408.472 627.128C408.858 627.18 409.195 627.213 409.482 627.225L409.23 627.99ZM410.892 624.419C410.478 624.18 410.019 624.028 409.514 623.964C409.016 623.895 408.483 623.968 407.915 624.182L411.008 625.968L411.081 625.925C411.299 625.775 411.428 625.607 411.47 625.421C411.52 625.239 411.491 625.061 411.386 624.887C411.288 624.709 411.123 624.553 410.892 624.419ZM417.182 628.719C417.182 628.492 417.119 628.269 416.992 628.05C416.873 627.836 416.708 627.668 416.498 627.546C416.351 627.461 416.186 627.386 416.004 627.322C415.828 627.261 415.642 627.231 415.446 627.231C415.257 627.227 415.071 627.277 414.889 627.382C414.643 627.532 414.576 627.7 414.689 627.886C414.808 628.077 414.99 628.291 415.236 628.53C415.446 628.741 415.628 628.959 415.783 629.186C415.944 629.409 416 629.636 415.951 629.866C415.916 630.097 415.698 630.328 415.299 630.559C414.955 630.757 414.562 630.87 414.121 630.899C413.686 630.931 413.248 630.897 412.806 630.796C412.378 630.694 411.996 630.547 411.659 630.352C411.259 630.121 410.933 629.852 410.681 629.544C410.442 629.237 410.362 628.903 410.439 628.542L411.806 628.603C411.778 628.838 411.82 629.061 411.933 629.271C412.059 629.482 412.297 629.688 412.648 629.891C412.781 629.968 412.935 630.032 413.111 630.085C413.293 630.134 413.479 630.156 413.668 630.152C413.872 630.148 414.061 630.095 414.236 629.994C414.405 629.897 414.482 629.791 414.468 629.678C414.468 629.565 414.412 629.443 414.299 629.314C414.194 629.18 414.065 629.04 413.91 628.895C413.693 628.672 413.496 628.441 413.321 628.202C413.16 627.963 413.093 627.722 413.121 627.48C413.163 627.237 413.381 627.002 413.773 626.775C414.103 626.585 414.475 626.475 414.889 626.447C415.316 626.419 415.744 626.455 416.172 626.556C416.607 626.654 416.996 626.801 417.339 627C417.669 627.19 417.957 627.437 418.202 627.741C418.448 628.044 418.542 628.358 418.486 628.682L417.182 628.719ZM422.215 631.625C422.215 631.398 422.152 631.175 422.026 630.957C421.907 630.742 421.742 630.574 421.532 630.453C421.384 630.367 421.219 630.293 421.037 630.228C420.862 630.167 420.676 630.137 420.48 630.137C420.29 630.133 420.104 630.183 419.922 630.289C419.677 630.438 419.61 630.606 419.722 630.793C419.841 630.983 420.024 631.198 420.269 631.436C420.48 631.647 420.662 631.866 420.816 632.092C420.978 632.315 421.034 632.542 420.985 632.773C420.949 633.003 420.732 633.234 420.332 633.465C419.989 633.663 419.596 633.777 419.154 633.805C418.719 633.837 418.281 633.803 417.839 633.702C417.412 633.6 417.029 633.453 416.693 633.258C416.293 633.028 415.967 632.758 415.714 632.451C415.476 632.143 415.395 631.809 415.472 631.449L416.84 631.509C416.812 631.744 416.854 631.967 416.966 632.177C417.092 632.388 417.331 632.594 417.682 632.797C417.815 632.874 417.969 632.939 418.144 632.991C418.327 633.04 418.513 633.062 418.702 633.058C418.905 633.054 419.095 633.001 419.27 632.9C419.438 632.803 419.515 632.698 419.501 632.584C419.501 632.471 419.445 632.349 419.333 632.22C419.228 632.086 419.098 631.947 418.944 631.801C418.726 631.578 418.53 631.347 418.355 631.108C418.193 630.87 418.127 630.629 418.155 630.386C418.197 630.143 418.414 629.908 418.807 629.681C419.137 629.491 419.508 629.382 419.922 629.353C420.35 629.325 420.778 629.361 421.205 629.463C421.64 629.56 422.029 629.708 422.373 629.906C422.703 630.096 422.99 630.343 423.236 630.647C423.481 630.951 423.576 631.264 423.52 631.588L422.215 631.625ZM430.657 634.822L425.135 638.011L424.041 637.379L424.893 636.887C424.493 636.924 424.027 636.905 423.494 636.833C422.961 636.76 422.477 636.598 422.042 636.347C421.579 636.079 421.278 635.764 421.137 635.399C421.004 635.039 421.043 634.668 421.253 634.288C421.463 633.907 421.849 633.555 422.41 633.231C422.971 632.907 423.581 632.689 424.24 632.575C424.907 632.458 425.562 632.448 426.208 632.545C426.86 632.638 427.445 632.834 427.964 633.134C428.35 633.357 428.602 633.6 428.722 633.863C428.848 634.13 428.886 634.379 428.837 634.61L429.563 634.191L430.657 634.822ZM423.294 635.916C423.63 636.11 424.005 636.233 424.419 636.286C424.84 636.335 425.261 636.318 425.682 636.237C426.109 636.152 426.502 636.007 426.86 635.8C427.21 635.598 427.456 635.375 427.596 635.132C427.736 634.889 427.761 634.648 427.67 634.409C427.586 634.166 427.375 633.948 427.039 633.753C426.716 633.567 426.348 633.448 425.934 633.395C425.52 633.342 425.103 633.357 424.682 633.438C424.261 633.519 423.872 633.662 423.515 633.869C423.157 634.075 422.904 634.302 422.757 634.549C422.617 634.792 422.589 635.035 422.673 635.278C422.764 635.517 422.971 635.729 423.294 635.916ZM426.49 639.85C426.539 640.064 426.672 640.291 426.889 640.53C427.107 640.769 427.366 640.975 427.668 641.15C428.236 641.477 428.811 641.648 429.393 641.66C429.968 641.676 430.532 641.524 431.086 641.204L431.76 640.815C431.493 640.856 431.192 640.868 430.855 640.852C430.525 640.832 430.189 640.779 429.845 640.694C429.509 640.605 429.207 640.483 428.941 640.33C428.429 640.034 428.088 639.696 427.92 639.315C427.752 638.935 427.762 638.548 427.952 638.155C428.148 637.767 428.523 637.412 429.077 637.093C429.638 636.769 430.252 636.552 430.918 636.443C431.591 636.329 432.254 636.319 432.906 636.412C433.565 636.51 434.148 636.704 434.652 636.995C435.073 637.238 435.35 637.508 435.483 637.803C435.631 638.099 435.68 638.358 435.631 638.581L436.399 638.137L437.482 638.763L432.296 641.757C431.637 642.137 430.974 642.366 430.308 642.443C429.642 642.528 429 642.498 428.383 642.352C427.766 642.214 427.205 642 426.7 641.708C426.307 641.482 425.978 641.218 425.711 640.919C425.445 640.627 425.29 640.356 425.248 640.105L426.49 639.85ZM433.811 637.651C433.474 637.457 433.089 637.331 432.654 637.275C432.233 637.218 431.802 637.228 431.36 637.305C430.932 637.382 430.539 637.524 430.182 637.73C429.824 637.937 429.579 638.164 429.445 638.41C429.319 638.662 429.302 638.911 429.393 639.157C429.498 639.404 429.719 639.625 430.056 639.819C430.406 640.022 430.792 640.151 431.213 640.208C431.64 640.269 432.068 640.261 432.496 640.184C432.931 640.103 433.327 639.959 433.685 639.753C434.049 639.542 434.298 639.313 434.432 639.066C434.565 638.819 434.579 638.572 434.474 638.325C434.382 638.078 434.162 637.854 433.811 637.651ZM440.926 639.367C440.681 639.225 440.562 639.083 440.569 638.941C440.576 638.8 440.681 638.67 440.884 638.553C441.059 638.451 441.277 638.395 441.536 638.383C441.796 638.37 442.048 638.435 442.294 638.577C442.539 638.719 442.658 638.86 442.651 639.002C442.644 639.144 442.539 639.273 442.336 639.391C442.161 639.492 441.943 639.549 441.684 639.561C441.424 639.573 441.172 639.508 440.926 639.367ZM434.762 643.569L433.679 642.944L439.201 639.755L440.285 640.381L434.762 643.569ZM444.937 642.933C445.435 643.221 445.719 643.502 445.789 643.778C445.86 644.053 445.775 644.32 445.537 644.579C445.306 644.842 444.98 645.096 444.559 645.338L441.193 647.282L440.109 646.656L443.402 644.755C443.668 644.602 443.871 644.444 444.012 644.282C444.152 644.12 444.198 643.956 444.148 643.79C444.099 643.624 443.914 643.46 443.591 643.298C443.31 643.136 443.002 643.027 442.665 642.97C442.329 642.913 441.999 642.905 441.676 642.946C441.354 642.986 441.073 643.075 440.835 643.213L437.49 645.144L436.406 644.519L441.929 641.33L443.012 641.956L442.139 642.46C442.567 642.407 443.04 642.417 443.559 642.49C444.085 642.559 444.545 642.707 444.937 642.933ZM442.505 649.096C442.554 649.311 442.687 649.537 442.904 649.776C443.122 650.015 443.381 650.222 443.683 650.396C444.251 650.724 444.826 650.894 445.408 650.906C445.983 650.922 446.548 650.77 447.102 650.45L447.775 650.062C447.508 650.102 447.207 650.114 446.87 650.098C446.54 650.078 446.204 650.025 445.86 649.94C445.524 649.851 445.222 649.73 444.956 649.576C444.444 649.28 444.104 648.942 443.935 648.562C443.767 648.181 443.777 647.794 443.967 647.402C444.163 647.013 444.538 646.659 445.092 646.339C445.653 646.015 446.267 645.798 446.933 645.689C447.606 645.576 448.269 645.566 448.921 645.659C449.581 645.756 450.163 645.95 450.668 646.242C451.088 646.485 451.365 646.754 451.499 647.049C451.646 647.345 451.695 647.604 451.646 647.827L452.414 647.383L453.497 648.009L448.311 651.003C447.652 651.384 446.989 651.613 446.323 651.689C445.657 651.774 445.015 651.744 444.398 651.598C443.781 651.461 443.22 651.246 442.715 650.955C442.322 650.728 441.993 650.465 441.726 650.165C441.46 649.874 441.305 649.602 441.263 649.351L442.505 649.096ZM449.826 646.898C449.489 646.703 449.104 646.578 448.669 646.521C448.248 646.464 447.817 646.475 447.375 646.551C446.947 646.628 446.555 646.77 446.197 646.977C445.839 647.183 445.594 647.41 445.461 647.657C445.334 647.908 445.317 648.157 445.408 648.404C445.513 648.651 445.734 648.871 446.071 649.066C446.421 649.268 446.807 649.398 447.228 649.454C447.656 649.515 448.083 649.507 448.511 649.43C448.946 649.349 449.342 649.205 449.7 648.999C450.064 648.788 450.313 648.56 450.447 648.313C450.58 648.066 450.594 647.819 450.489 647.572C450.398 647.325 450.177 647.1 449.826 646.898Z" fill="#333333"/>
<path d="M385.346 585.414C385.22 585.819 385.195 586.177 385.272 586.489C385.364 586.801 385.658 587.1 386.156 587.388C386.394 587.525 386.661 587.635 386.955 587.716C387.25 587.797 387.541 587.835 387.829 587.831C388.116 587.827 388.361 587.766 388.565 587.649C388.915 587.447 389.038 587.202 388.933 586.914C388.835 586.631 388.568 586.303 388.134 585.93C387.587 585.452 387.282 584.997 387.218 584.564C387.162 584.126 387.464 583.718 388.123 583.337C388.544 583.094 389.024 582.95 389.564 582.906C390.111 582.865 390.662 582.908 391.216 583.033C391.77 583.159 392.271 583.351 392.72 583.61C393.302 583.946 393.691 584.301 393.888 584.673C394.084 585.046 394.094 585.42 393.919 585.797L392.331 585.791C392.457 585.499 392.474 585.214 392.383 584.934C392.292 584.655 392.054 584.404 391.668 584.181C391.282 583.958 390.865 583.823 390.416 583.774C389.981 583.726 389.606 583.792 389.291 583.975C388.933 584.181 388.807 584.412 388.912 584.667C389.031 584.922 389.27 585.21 389.627 585.529C389.957 585.817 390.22 586.119 390.416 586.434C390.613 586.75 390.686 587.056 390.637 587.351C390.602 587.647 390.388 587.908 389.995 588.135C389.294 588.54 388.498 588.724 387.608 588.687C386.717 588.651 385.854 588.392 385.02 587.91C384.452 587.582 384.045 587.218 383.8 586.817C383.561 586.42 383.519 585.975 383.673 585.481L385.346 585.414ZM394.614 592.49L394.603 592.483C394.161 592.479 393.66 592.413 393.099 592.283C392.538 592.153 392.043 591.965 391.616 591.718C391.041 591.386 390.651 591.024 390.448 590.631C390.259 590.238 390.252 589.85 390.427 589.465C390.609 589.076 390.97 588.726 391.51 588.414C392.128 588.058 392.783 587.829 393.478 587.728C394.179 587.623 394.859 587.627 395.518 587.74C396.185 587.85 396.77 588.05 397.275 588.341C397.738 588.609 398.043 588.918 398.19 589.271C398.344 589.619 398.334 589.973 398.159 590.333C397.983 590.694 397.629 591.028 397.096 591.336L396.623 591.597L392.394 589.155C391.959 589.479 391.766 589.825 391.816 590.194C391.879 590.562 392.177 590.9 392.71 591.208C393.095 591.431 393.478 591.57 393.856 591.627C394.242 591.68 394.579 591.712 394.866 591.724L394.614 592.49ZM396.276 588.918C395.862 588.68 395.403 588.528 394.898 588.463C394.4 588.394 393.867 588.467 393.299 588.682L396.391 590.467L396.465 590.425C396.682 590.275 396.812 590.107 396.854 589.921C396.903 589.738 396.875 589.56 396.77 589.386C396.672 589.208 396.507 589.052 396.276 588.918ZM402.755 592.999C402.72 592.939 402.66 592.872 402.576 592.799C402.506 592.726 402.415 592.657 402.303 592.592C402.078 592.463 401.798 592.37 401.461 592.313C401.131 592.252 400.784 592.242 400.42 592.283C400.069 592.323 399.746 592.428 399.452 592.598L396.401 594.36L395.307 593.728L400.83 590.54L401.924 591.171L400.882 591.772C401.373 591.667 401.882 591.641 402.408 591.694C402.941 591.75 403.379 591.878 403.723 592.076C403.982 592.226 404.147 592.362 404.217 592.483L402.755 592.999ZM406.238 593.662L403.903 596.869L409.52 595.557L410.635 596.201L402.661 597.974L401.883 597.525L405.07 592.988L406.238 593.662ZM413.551 596.5C413.306 596.358 413.187 596.216 413.194 596.075C413.201 595.933 413.306 595.803 413.509 595.686C413.685 595.585 413.902 595.528 414.162 595.516C414.421 595.504 414.673 595.568 414.919 595.71C415.164 595.852 415.284 595.994 415.277 596.135C415.27 596.277 415.164 596.407 414.961 596.524C414.786 596.625 414.568 596.682 414.309 596.694C414.049 596.706 413.797 596.641 413.551 596.5ZM407.387 600.702L406.304 600.077L411.826 596.888L412.91 597.514L407.387 600.702ZM412.492 600.455C412.128 600.666 411.882 600.901 411.756 601.16C411.644 601.419 411.637 601.674 411.735 601.925C411.847 602.176 412.058 602.391 412.366 602.569C412.717 602.771 413.113 602.895 413.555 602.939C413.997 602.984 414.396 602.996 414.754 602.976L414.617 603.747C414.295 603.779 413.933 603.777 413.534 603.741C413.141 603.7 412.745 603.626 412.345 603.516C411.952 603.403 411.595 603.253 411.272 603.067C410.767 602.775 410.438 602.439 410.283 602.059C410.129 601.678 410.15 601.293 410.346 600.905C410.55 600.52 410.921 600.172 411.461 599.86C412.008 599.544 412.612 599.33 413.271 599.216C413.944 599.103 414.61 599.091 415.269 599.18C415.929 599.269 416.511 599.459 417.016 599.751C417.528 600.046 417.878 600.37 418.068 600.723C418.264 601.071 418.295 601.397 418.162 601.7L416.826 601.779C416.903 601.549 416.875 601.298 416.742 601.026C416.623 600.755 416.423 600.538 416.143 600.376C415.813 600.186 415.431 600.063 414.996 600.006C414.568 599.945 414.133 599.953 413.692 600.03C413.257 600.103 412.857 600.245 412.492 600.455ZM420.131 607.222L420.12 607.216C419.679 607.212 419.177 607.145 418.616 607.015C418.055 606.886 417.561 606.698 417.133 606.451C416.558 606.119 416.169 605.756 415.965 605.363C415.776 604.971 415.769 604.582 415.944 604.197C416.127 603.809 416.488 603.459 417.028 603.147C417.645 602.79 418.301 602.562 418.995 602.46C419.696 602.355 420.376 602.359 421.036 602.473C421.702 602.582 422.287 602.782 422.792 603.074C423.255 603.341 423.56 603.651 423.707 604.003C423.862 604.351 423.851 604.706 423.676 605.066C423.501 605.426 423.146 605.76 422.613 606.068L422.14 606.329L417.911 603.888C417.477 604.212 417.284 604.558 417.333 604.926C417.396 605.295 417.694 605.633 418.227 605.94C418.613 606.163 418.995 606.303 419.374 606.36C419.759 606.412 420.096 606.445 420.383 606.457L420.131 607.222ZM421.793 603.651C421.379 603.412 420.92 603.26 420.415 603.195C419.917 603.127 419.384 603.199 418.816 603.414L421.909 605.2L421.982 605.157C422.2 605.007 422.329 604.839 422.372 604.653C422.421 604.471 422.393 604.293 422.287 604.118C422.189 603.94 422.024 603.784 421.793 603.651ZM428.083 607.95C428.083 607.724 428.02 607.501 427.893 607.282C427.774 607.068 427.609 606.9 427.399 606.778C427.252 606.693 427.087 606.618 426.905 606.553C426.729 606.493 426.543 606.462 426.347 606.462C426.158 606.458 425.972 606.509 425.79 606.614C425.544 606.764 425.478 606.932 425.59 607.118C425.709 607.309 425.891 607.523 426.137 607.762C426.347 607.973 426.529 608.191 426.684 608.418C426.845 608.641 426.901 608.867 426.852 609.098C426.817 609.329 426.6 609.56 426.2 609.791C425.856 609.989 425.464 610.102 425.022 610.131C424.587 610.163 424.149 610.129 423.707 610.027C423.279 609.926 422.897 609.778 422.56 609.584C422.16 609.353 421.834 609.084 421.582 608.776C421.343 608.469 421.263 608.135 421.34 607.774L422.707 607.835C422.679 608.07 422.722 608.292 422.834 608.503C422.96 608.714 423.198 608.92 423.549 609.122C423.682 609.199 423.837 609.264 424.012 609.317C424.194 609.365 424.38 609.388 424.569 609.384C424.773 609.38 424.962 609.327 425.137 609.226C425.306 609.129 425.383 609.023 425.369 608.91C425.369 608.797 425.313 608.675 425.201 608.546C425.095 608.412 424.966 608.272 424.811 608.126C424.594 607.904 424.398 607.673 424.222 607.434C424.061 607.195 423.994 606.954 424.022 606.711C424.064 606.468 424.282 606.234 424.675 606.007C425.004 605.817 425.376 605.707 425.79 605.679C426.217 605.651 426.645 605.687 427.073 605.788C427.508 605.885 427.897 606.033 428.241 606.232C428.57 606.422 428.858 606.669 429.103 606.973C429.349 607.276 429.443 607.59 429.387 607.914L428.083 607.95Z" fill="#333333"/>
<path d="M346.526 613.88C346.084 614.135 345.541 614.295 344.895 614.36C344.257 614.428 343.637 614.394 343.033 614.256L341.792 616.953L340.425 616.151L341.634 613.655L339.951 612.683L337.185 614.281L336.049 613.625L343.412 609.373L346.547 611.183C346.933 611.406 347.206 611.673 347.367 611.985C347.536 612.301 347.557 612.625 347.431 612.957C347.311 613.293 347.01 613.6 346.526 613.88ZM345.264 611.706L343.454 610.661L341.045 612.052L343.149 613.266C343.486 613.461 343.864 613.542 344.285 613.509C344.713 613.481 345.078 613.38 345.379 613.206C345.765 612.983 345.933 612.732 345.884 612.453C345.842 612.169 345.635 611.92 345.264 611.706ZM348.354 619.891L348.343 619.885C347.902 619.881 347.4 619.814 346.839 619.685C346.278 619.555 345.784 619.367 345.356 619.12C344.781 618.788 344.392 618.425 344.188 618.033C343.999 617.64 343.992 617.251 344.167 616.867C344.35 616.478 344.711 616.128 345.251 615.816C345.868 615.46 346.524 615.231 347.218 615.13C347.919 615.024 348.599 615.028 349.259 615.142C349.925 615.251 350.51 615.451 351.015 615.743C351.478 616.01 351.783 616.32 351.93 616.672C352.085 617.02 352.074 617.375 351.899 617.735C351.724 618.095 351.369 618.429 350.836 618.737L350.363 618.998L346.134 616.557C345.7 616.881 345.507 617.227 345.556 617.595C345.619 617.964 345.917 618.302 346.45 618.61C346.836 618.832 347.218 618.972 347.597 619.029C347.982 619.081 348.319 619.114 348.606 619.126L348.354 619.891ZM350.016 616.32C349.602 616.081 349.143 615.929 348.638 615.864C348.14 615.796 347.607 615.868 347.039 616.083L350.132 617.869L350.205 617.826C350.423 617.676 350.552 617.508 350.594 617.322C350.644 617.14 350.616 616.962 350.51 616.788C350.412 616.609 350.247 616.454 350.016 616.32ZM348.838 622.066C348.887 622.28 349.021 622.507 349.238 622.746C349.455 622.985 349.715 623.191 350.017 623.365C350.585 623.693 351.16 623.863 351.742 623.875C352.317 623.892 352.881 623.74 353.435 623.42L354.108 623.031C353.842 623.072 353.54 623.084 353.204 623.068C352.874 623.047 352.538 622.995 352.194 622.91C351.857 622.821 351.556 622.699 351.289 622.545C350.777 622.25 350.437 621.912 350.269 621.531C350.101 621.151 350.111 620.764 350.301 620.371C350.497 619.982 350.872 619.628 351.426 619.308C351.987 618.984 352.601 618.768 353.267 618.658C353.94 618.545 354.603 618.535 355.255 618.628C355.914 618.725 356.496 618.92 357.001 619.211C357.422 619.454 357.699 619.723 357.832 620.019C357.98 620.314 358.029 620.574 357.98 620.796L358.747 620.353L359.831 620.978L354.645 623.973C353.986 624.353 353.323 624.582 352.657 624.659C351.991 624.744 351.349 624.714 350.732 624.568C350.115 624.43 349.554 624.215 349.049 623.924C348.656 623.697 348.326 623.434 348.06 623.134C347.793 622.843 347.639 622.572 347.597 622.321L348.838 622.066ZM356.16 619.867C355.823 619.673 355.437 619.547 355.003 619.49C354.582 619.434 354.151 619.444 353.709 619.521C353.281 619.598 352.888 619.74 352.531 619.946C352.173 620.152 351.927 620.379 351.794 620.626C351.668 620.877 351.65 621.126 351.742 621.373C351.847 621.62 352.068 621.841 352.404 622.035C352.755 622.238 353.141 622.367 353.561 622.424C353.989 622.485 354.417 622.477 354.845 622.4C355.28 622.319 355.676 622.175 356.033 621.968C356.398 621.758 356.647 621.529 356.78 621.282C356.914 621.035 356.928 620.788 356.822 620.541C356.731 620.294 356.51 620.069 356.16 619.867ZM361.71 625.901L365.034 623.982L366.117 624.608L360.595 627.796L359.511 627.171L360.395 626.661C359.974 626.717 359.504 626.713 358.985 626.648C358.48 626.584 358.01 626.426 357.576 626.175C357.001 625.843 356.731 625.46 356.766 625.027C356.801 624.594 357.165 624.177 357.86 623.776L361.268 621.808L362.351 622.434L359.238 624.231C358.957 624.393 358.74 624.567 358.585 624.754C358.438 624.944 358.386 625.136 358.428 625.331C358.484 625.525 358.663 625.709 358.964 625.883C359.343 626.102 359.788 626.221 360.3 626.242C360.812 626.262 361.282 626.148 361.71 625.901ZM362.114 628.674L369.899 624.179L370.982 624.805L363.198 629.299L362.114 628.674ZM375.308 629.914L369.785 633.103L368.691 632.471L369.543 631.979C369.144 632.015 368.677 631.997 368.144 631.924C367.611 631.851 367.127 631.689 366.693 631.438C366.23 631.171 365.928 630.855 365.788 630.491C365.655 630.131 365.693 629.76 365.904 629.38C366.114 628.999 366.5 628.647 367.061 628.323C367.622 627.999 368.232 627.78 368.891 627.667C369.557 627.55 370.213 627.539 370.858 627.637C371.51 627.73 372.096 627.926 372.615 628.226C373.001 628.448 373.253 628.691 373.372 628.954C373.499 629.222 373.537 629.471 373.488 629.702L374.214 629.282L375.308 629.914ZM367.944 631.007C368.281 631.202 368.656 631.325 369.07 631.378C369.491 631.426 369.912 631.41 370.332 631.329C370.76 631.244 371.153 631.098 371.51 630.892C371.861 630.689 372.107 630.467 372.247 630.224C372.387 629.981 372.412 629.74 372.32 629.501C372.236 629.258 372.026 629.04 371.689 628.845C371.367 628.659 370.999 628.539 370.585 628.487C370.171 628.434 369.754 628.448 369.333 628.529C368.912 628.61 368.523 628.754 368.165 628.961C367.808 629.167 367.555 629.394 367.408 629.641C367.268 629.884 367.24 630.127 367.324 630.37C367.415 630.608 367.622 630.821 367.944 631.007ZM378.746 633.247C378.711 633.186 378.651 633.12 378.567 633.047C378.497 632.974 378.406 632.905 378.293 632.84C378.069 632.711 377.788 632.618 377.452 632.561C377.122 632.5 376.775 632.49 376.41 632.531C376.06 632.571 375.737 632.676 375.443 632.846L372.392 634.608L371.298 633.976L376.821 630.787L377.915 631.419L376.873 632.02C377.364 631.915 377.873 631.889 378.399 631.941C378.932 631.998 379.37 632.126 379.713 632.324C379.973 632.474 380.138 632.609 380.208 632.731L378.746 633.247Z" fill="#333333"/>
<path d="M443.471 673.313C443.078 673.539 442.609 673.681 442.062 673.738C441.522 673.799 440.964 673.776 440.389 673.671C439.828 673.566 439.313 673.377 438.843 673.106C438.38 672.839 438.054 672.541 437.864 672.213C437.689 671.885 437.651 671.564 437.749 671.248C437.854 670.936 438.103 670.667 438.496 670.44C438.958 670.173 439.449 670.023 439.968 669.991C440.501 669.958 440.999 669.982 441.462 670.063C441.329 669.841 441.283 669.604 441.325 669.353C441.367 669.102 441.567 668.873 441.925 668.667C442.29 668.456 442.724 668.322 443.229 668.266C443.741 668.205 444.264 668.223 444.797 668.32C445.33 668.418 445.81 668.59 446.238 668.837C446.673 669.088 446.971 669.365 447.132 669.669C447.3 669.976 447.332 670.278 447.227 670.574C447.128 670.865 446.897 671.116 446.532 671.327C446.273 671.476 445.996 671.576 445.701 671.624C445.421 671.673 445.14 671.689 444.86 671.673C444.579 671.657 444.32 671.624 444.081 671.576C444.25 671.892 444.281 672.205 444.176 672.517C444.078 672.833 443.843 673.098 443.471 673.313ZM443.019 669.335C442.738 669.497 442.623 669.697 442.672 669.936C442.721 670.175 442.907 670.387 443.229 670.574C443.559 670.764 443.927 670.871 444.334 670.895C444.748 670.924 445.095 670.857 445.375 670.695C445.649 670.537 445.768 670.339 445.733 670.1C445.712 669.861 445.529 669.642 445.186 669.444C444.842 669.246 444.46 669.138 444.039 669.122C443.632 669.106 443.292 669.177 443.019 669.335ZM439.895 672.499C440.287 672.726 440.722 672.851 441.199 672.875C441.676 672.9 442.072 672.821 442.388 672.639C442.745 672.432 442.9 672.189 442.851 671.91C442.808 671.626 442.598 671.375 442.219 671.157C441.848 670.942 441.416 670.823 440.926 670.798C440.442 670.77 440.021 670.859 439.663 671.066C439.348 671.248 439.211 671.476 439.253 671.752C439.295 672.027 439.509 672.276 439.895 672.499ZM445.008 676.751C444.419 676.411 444.082 676.03 443.998 675.609C443.928 675.188 444.075 674.755 444.44 674.309C444.805 673.864 445.355 673.429 446.092 673.004C446.828 672.578 447.582 672.261 448.353 672.05C449.125 671.839 449.871 671.756 450.594 671.801C451.33 671.846 451.993 672.038 452.582 672.378C453.178 672.722 453.511 673.105 453.581 673.526C453.658 673.943 453.515 674.374 453.15 674.819C452.792 675.269 452.245 675.706 451.509 676.131C450.773 676.556 450.015 676.872 449.237 677.079C448.465 677.289 447.715 677.374 446.986 677.334C446.263 677.289 445.604 677.095 445.008 676.751ZM446.039 676.156C446.544 676.447 447.175 676.536 447.932 676.423C448.697 676.313 449.521 676.004 450.404 675.494C451.288 674.983 451.825 674.508 452.014 674.066C452.21 673.629 452.056 673.265 451.551 672.973C451.046 672.682 450.411 672.591 449.647 672.7C448.89 672.813 448.069 673.125 447.186 673.635C446.302 674.145 445.762 674.619 445.566 675.056C445.376 675.498 445.534 675.864 446.039 676.156Z" fill="#333333"/>
<path d="M475.156 660.474L466.74 660.474L466.74 655.616" stroke="#333333" stroke-width="1.21465" stroke-linecap="round" stroke-linejoin="round"/>
<g filter="url(#filter3_ddddd_5_7863)">
<rect width="199.021" height="81.737" rx="23.1402" transform="matrix(0.866025 0.5 -0.866025 0.5 256.762 646.995)" fill="url(#paint5_radial_5_7863)"/>
</g>
<g filter="url(#filter4_i_5_7863)">
<path d="M206.016 699.434C199.581 695.718 196.887 690.661 197.936 685.822C198.69 689.305 201.384 692.675 206.016 695.35L338.294 771.721C349.362 778.111 367.306 778.111 378.374 771.721L409.08 753.992C413.713 751.318 416.406 747.947 417.161 744.464C418.209 749.303 415.515 754.361 409.08 758.076L378.374 775.804C367.306 782.194 349.362 782.194 338.294 775.804L206.016 699.434Z" fill="url(#paint6_linear_5_7863)"/>
</g>
<rect x="-2.43399e-08" y="0.408356" width="198.205" height="80.9203" rx="22.7318" transform="matrix(0.866025 0.5 -0.866025 0.5 257.116 643.116)" fill="url(#paint7_linear_5_7863)" fill-opacity="0.9" stroke="url(#paint8_linear_5_7863)" stroke-width="0.816712"/>
<path d="M263.129 695.16L274.37 688.67L270.673 686.535L272.635 685.403L282.179 690.913L280.217 692.045L276.407 689.846L265.166 696.336L263.129 695.16ZM278.926 702.778L278.907 702.767C278.115 702.76 277.216 702.64 276.21 702.407C275.204 702.175 274.318 701.838 273.551 701.395C272.52 700.799 271.822 700.15 271.457 699.445C271.118 698.741 271.105 698.044 271.42 697.355C271.746 696.658 272.394 696.03 273.362 695.471C274.469 694.832 275.644 694.422 276.889 694.24C278.147 694.052 279.366 694.059 280.548 694.262C281.743 694.458 282.793 694.817 283.698 695.34C284.528 695.819 285.075 696.375 285.339 697.006C285.616 697.631 285.597 698.266 285.282 698.912C284.968 699.558 284.333 700.157 283.377 700.709L282.529 701.177L274.947 696.799C274.167 697.38 273.821 698.001 273.909 698.661C274.022 699.322 274.557 699.928 275.512 700.48C276.204 700.879 276.889 701.13 277.568 701.231C278.26 701.326 278.863 701.384 279.379 701.406L278.926 702.778ZM281.906 696.375C281.164 695.946 280.341 695.674 279.436 695.558C278.543 695.435 277.587 695.565 276.569 695.95L282.114 699.151L282.246 699.075C282.636 698.807 282.868 698.505 282.944 698.171C283.032 697.845 282.981 697.525 282.793 697.213C282.617 696.894 282.321 696.614 281.906 696.375ZM280.17 704.998L294.127 696.94L296.07 698.062L282.113 706.12L280.17 704.998ZM294.509 711.774L294.49 711.763C293.698 711.756 292.799 711.636 291.793 711.404C290.787 711.172 289.9 710.834 289.133 710.391C288.102 709.796 287.404 709.146 287.04 708.442C286.7 707.738 286.688 707.041 287.002 706.351C287.329 705.654 287.977 705.026 288.945 704.467C290.051 703.829 291.227 703.418 292.472 703.237C293.729 703.048 294.949 703.055 296.131 703.259C297.325 703.455 298.375 703.814 299.281 704.337C300.111 704.816 300.658 705.371 300.922 706.003C301.198 706.627 301.179 707.262 300.865 707.909C300.551 708.555 299.916 709.154 298.96 709.705L298.111 710.174L290.529 705.796C289.75 706.377 289.404 706.997 289.492 707.658C289.605 708.319 290.139 708.925 291.095 709.477C291.787 709.876 292.472 710.126 293.151 710.228C293.842 710.322 294.446 710.38 294.961 710.402L294.509 711.774ZM297.489 705.371C296.747 704.943 295.923 704.671 295.018 704.555C294.125 704.431 293.17 704.562 292.151 704.947L297.696 708.148L297.828 708.072C298.218 707.803 298.451 707.502 298.526 707.168C298.614 706.841 298.564 706.522 298.375 706.21C298.199 705.89 297.904 705.611 297.489 705.371ZM295.377 715.673C295.465 716.058 295.704 716.465 296.094 716.893C296.484 717.321 296.949 717.691 297.49 718.004C298.508 718.592 299.539 718.897 300.583 718.918C301.614 718.947 302.626 718.675 303.62 718.102L304.827 717.405C304.349 717.477 303.808 717.499 303.205 717.47C302.614 717.434 302.01 717.339 301.394 717.187C300.791 717.027 300.25 716.809 299.772 716.534C298.854 716.004 298.244 715.397 297.943 714.715C297.641 714.033 297.66 713.339 297.999 712.635C298.351 711.938 299.024 711.303 300.017 710.729C301.023 710.149 302.123 709.76 303.318 709.564C304.525 709.361 305.713 709.343 306.883 709.51C308.065 709.684 309.108 710.033 310.014 710.555C310.768 710.991 311.265 711.474 311.504 712.004C311.768 712.534 311.856 712.998 311.768 713.397L313.145 712.602L315.087 713.724L305.789 719.093C304.607 719.775 303.419 720.185 302.224 720.323C301.03 720.476 299.879 720.421 298.772 720.16C297.666 719.913 296.66 719.528 295.755 719.005C295.051 718.599 294.46 718.127 293.982 717.59C293.504 717.067 293.227 716.581 293.152 716.131L295.377 715.673ZM308.505 711.731C307.901 711.383 307.21 711.158 306.43 711.056C305.676 710.955 304.902 710.973 304.11 711.111C303.343 711.249 302.639 711.503 301.998 711.873C301.356 712.243 300.916 712.65 300.677 713.092C300.451 713.543 300.42 713.989 300.583 714.432C300.772 714.875 301.168 715.27 301.771 715.619C302.4 715.982 303.092 716.214 303.846 716.316C304.613 716.425 305.38 716.41 306.147 716.272C306.927 716.127 307.637 715.869 308.278 715.499C308.932 715.122 309.379 714.711 309.618 714.269C309.857 713.826 309.882 713.383 309.693 712.94C309.53 712.497 309.134 712.094 308.505 711.731ZM321.263 719.707C321.2 719.598 321.093 719.478 320.942 719.348C320.816 719.217 320.653 719.093 320.452 718.977C320.049 718.745 319.546 718.578 318.943 718.476C318.352 718.368 317.729 718.349 317.076 718.422C316.447 718.495 315.868 718.683 315.34 718.988L309.871 722.146L307.909 721.014L317.811 715.297L319.773 716.429L317.905 717.507C318.786 717.318 319.697 717.271 320.64 717.366C321.596 717.467 322.382 717.696 322.998 718.052C323.463 718.32 323.759 718.564 323.884 718.781L321.263 719.707ZM334.218 724.769L324.316 730.486L322.354 729.353L323.882 728.471C323.165 728.537 322.329 728.504 321.373 728.373C320.418 728.243 319.55 727.952 318.77 727.502C317.941 727.023 317.4 726.457 317.148 725.804C316.909 725.157 316.979 724.493 317.356 723.811C317.733 723.128 318.425 722.497 319.431 721.916C320.437 721.335 321.53 720.943 322.712 720.74C323.907 720.529 325.083 720.511 326.239 720.685C327.409 720.852 328.459 721.205 329.389 721.742C330.081 722.141 330.534 722.577 330.747 723.048C330.974 723.528 331.043 723.974 330.955 724.388L332.256 723.637L334.218 724.769ZM321.015 726.729C321.618 727.078 322.291 727.299 323.033 727.393C323.788 727.48 324.542 727.451 325.296 727.306C326.063 727.154 326.768 726.892 327.409 726.522C328.038 726.159 328.478 725.76 328.729 725.324C328.981 724.889 329.025 724.457 328.861 724.029C328.71 723.593 328.333 723.201 327.729 722.852C327.151 722.519 326.491 722.304 325.749 722.21C325.007 722.116 324.259 722.141 323.505 722.286C322.75 722.431 322.052 722.689 321.411 723.059C320.77 723.43 320.317 723.836 320.053 724.279C319.802 724.715 319.751 725.15 319.902 725.586C320.066 726.014 320.437 726.395 321.015 726.729ZM342.136 729.145C342.953 729.616 343.418 730.103 343.532 730.604C343.657 731.097 343.506 731.591 343.079 732.085C343.569 732.005 344.141 731.972 344.795 731.987C345.462 731.994 346.128 732.067 346.795 732.204C347.461 732.342 348.052 732.56 348.568 732.858C349.423 733.352 349.9 733.845 350.001 734.339C350.114 734.825 349.951 735.304 349.511 735.776C349.096 736.248 348.505 736.705 347.738 737.148L341.796 740.579L339.835 739.446L345.663 736.081C346.392 735.66 346.845 735.239 347.021 734.818C347.197 734.397 346.901 733.965 346.134 733.522C345.405 733.101 344.569 732.887 343.626 732.88C342.708 732.872 341.922 733.057 341.268 733.435L335.346 736.854L333.384 735.722L339.25 732.335C339.954 731.929 340.382 731.508 340.533 731.072C340.684 730.636 340.413 730.219 339.722 729.82C339.244 729.544 338.709 729.359 338.118 729.264C337.527 729.17 336.949 729.163 336.383 729.243C335.83 729.315 335.34 729.475 334.912 729.722L328.952 733.163L326.99 732.03L336.892 726.313L338.854 727.446L337.27 728.36C338.024 728.273 338.848 728.284 339.741 728.393C340.658 728.502 341.457 728.753 342.136 729.145Z" fill="white"/>
<g filter="url(#filter5_bdddddddd_5_7863)">
<rect width="245.202" height="63.1026" rx="17.666" transform="matrix(0.866025 0.5 -0.866025 0.5 60.6484 643)" fill="url(#paint9_linear_5_7863)" fill-opacity="0.65" shape-rendering="crispEdges"/>
<rect x="1.8582e-08" y="-0.311754" width="245.826" height="63.7261" rx="17.9778" transform="matrix(0.866025 0.5 -0.866025 0.5 60.3785 642.844)" stroke="#EBEEF5" stroke-width="0.623508" shape-rendering="crispEdges"/>
</g>
<g clip-path="url(#clip0_5_7863)">
<path d="M157.106 724.84C159.293 723.577 162.838 723.577 165.025 724.84L171.676 728.679C173.863 729.942 173.863 731.989 171.676 733.252L165.025 737.091C162.838 738.354 159.293 738.354 157.106 737.091L150.455 733.252C148.268 731.989 148.268 729.942 150.455 728.679L157.106 724.84Z" fill="#333333"/>
<path d="M165.072 728.652C162.86 727.375 159.27 727.375 157.059 728.652C154.847 729.929 154.847 732.002 157.059 733.279L159.062 734.436L159.863 733.973L157.86 732.816C156.121 731.812 156.121 730.119 157.86 729.115C159.599 728.111 162.532 728.111 164.271 729.115C166.01 730.119 166.01 731.812 164.271 732.816L163.698 733.147C163.381 733.33 162.784 733.346 162.468 733.163C162.151 732.981 162.179 732.636 162.496 732.453L163.069 732.122C164.175 731.484 164.175 730.448 163.069 729.809C161.963 729.171 160.168 729.171 159.062 729.809C157.956 730.448 157.956 731.484 159.062 732.122C159.615 732.442 160.344 732.603 161.069 732.601C160.973 732.957 161.19 733.351 161.666 733.626C162.456 734.082 163.71 734.065 164.499 733.61L165.072 733.279C167.284 732.002 167.284 729.929 165.072 728.652ZM159.863 731.66C159.198 731.276 159.198 730.656 159.863 730.272C160.529 729.888 161.602 729.888 162.267 730.272C162.933 730.656 162.933 731.276 162.267 731.66C161.602 732.044 160.529 732.044 159.863 731.66Z" fill="white"/>
</g>
<g clip-path="url(#clip1_5_7863)">
<path d="M205.199 748.985C205.654 748.722 206.391 748.722 206.845 748.985L219.769 756.446C220.224 756.709 220.224 757.134 219.769 757.397L206.845 764.858C206.391 765.121 205.654 765.121 205.199 764.858L192.276 757.397C191.821 757.134 191.821 756.709 192.276 756.446L205.199 748.985Z" fill="#333333"/>
</g>
<path d="M212.351 756.894C212.331 756.762 212.151 756.641 211.869 756.571L211.869 756.571C211.572 756.497 203.317 754.57 202.981 754.492C202.923 754.476 202.41 754.339 202.14 754.54C201.897 754.72 202.083 754.96 202.107 754.989L203.081 756.128C202.857 756.37 202.029 757.264 201.855 757.457C201.747 757.577 201.62 757.743 201.719 757.85C201.796 757.949 201.964 757.996 202.106 758.006L203.834 758.049L204.166 759.536L204.18 759.568C204.236 759.65 204.309 759.717 204.399 759.77C204.469 759.81 204.548 759.841 204.638 759.863C204.945 759.938 205.237 759.869 205.27 759.861L211.942 757.263C212.306 757.13 212.366 756.989 212.351 756.894ZM204.181 756.993L202.372 757.464L203.514 756.23L210.112 756.822L204.181 756.993Z" fill="white"/>
<path d="M81.4554 679.056C81.4561 677.303 80.1513 675.664 77.8014 674.51C74.6425 672.957 70.0462 672.651 66.3834 673.776C63.7665 674.579 61.9314 675.936 61.2006 677.51L57.117 678.776C56.7253 678.898 56.7165 679.22 57.1016 679.349L61.267 680.737C61.7505 681.687 62.6425 682.555 63.8613 683.259L63.8642 683.261C66.9238 685.028 71.6223 685.579 75.4995 684.47C79.279 683.388 81.4532 681.319 81.4554 679.056ZM72.1161 682.613C71.5391 682.771 70.386 682.579 70.0221 682.403C69.6574 682.228 69.2242 682.117 68.2928 680.879C67.1718 679.39 67.9004 677.62 67.931 677.498C67.9617 677.375 68.1746 676.499 69.0703 675.982C69.9659 675.465 70.8769 675.482 71.2255 675.474C71.5749 675.465 71.817 675.553 71.9388 675.623C72.0599 675.693 72.1817 675.763 72.2831 675.827C72.4078 675.905 72.5449 675.991 72.3786 676.245C72.1802 676.546 71.634 677.27 71.588 677.349C71.5421 677.428 71.4662 677.507 71.2846 677.542C71.103 677.577 70.9965 677.603 70.7996 677.612C70.6019 677.621 70.3715 677.639 70.2081 677.639C70.0265 677.638 69.8325 677.641 69.7566 677.807C69.6808 677.973 69.4496 678.528 69.5086 679.119C69.5845 679.878 69.9783 680.327 70.0688 680.486C70.1599 680.644 70.281 680.696 70.5093 680.687C70.7369 680.679 71.4954 680.643 71.7988 680.608C72.1022 680.572 72.1934 680.66 72.2999 680.792C72.4063 680.923 72.8607 681.694 72.9512 681.852C73.0423 682.01 73.1182 682.106 73.0876 682.175C73.0577 682.245 72.693 682.456 72.1161 682.613Z" fill="#333333"/>
<path d="M126.733 706.8C127.429 706.086 127.658 705.335 127.413 704.569C127.104 703.601 126.206 702.802 125.367 702.149C124.207 701.244 123 700.514 121.68 699.918C120.442 699.359 119.395 699.004 118.289 698.768C116.121 698.304 114.125 698.427 112.357 699.133C111.499 699.476 110.754 699.803 110.076 700.135C108.51 700.902 107.337 701.703 106.492 702.586C105.667 703.446 105.422 704.259 105.742 705.071C105.824 705.279 106.005 705.499 106.181 705.712C106.269 705.819 106.353 705.922 106.417 706.017L104.079 707.367C103.773 707.543 103.773 707.829 104.079 708.006C104.223 708.089 104.418 708.137 104.622 708.138L108.877 708.172C109.079 708.165 109.079 708.165 109.177 708.219C109.929 708.637 110.711 709.055 111.499 709.464C112.456 709.959 113.594 710.515 114.996 710.848C116.279 711.152 117.54 711.187 118.742 710.952C119.995 710.706 121.152 710.323 122.275 709.78C124.25 708.827 125.708 707.852 126.733 706.8ZM116.077 708.616C115.506 708.696 114.936 708.65 114.396 708.521C114 708.428 113.74 708.249 113.582 708.023C112.25 706.127 111.981 704.194 112.996 702.227C113.205 701.822 113.53 701.436 113.815 701.045C113.874 700.964 113.993 700.899 114.083 700.826C114.878 700.387 115.913 700.479 116.648 700.75C116.93 700.854 117.052 701.019 117.059 701.212C117.081 701.746 116.932 702.264 116.626 702.765C116.492 702.985 116.208 703.084 115.807 703.073C115.724 703.072 115.641 703.067 115.559 703.06C114.72 702.991 114.378 703.108 114.09 703.568C113.602 704.352 113.704 705.126 114.253 705.886C114.398 706.087 114.68 706.191 115.067 706.185C115.119 706.184 115.173 706.186 115.222 706.179C116.204 706.037 116.677 706.38 116.819 706.867C116.913 707.186 116.985 707.508 117.071 707.828C117.198 708.315 116.858 708.507 116.077 708.616ZM119.664 703.348C119.54 703.277 119.406 703.21 119.263 703.152C119.022 703.053 118.967 702.86 119.139 702.721C119.31 702.582 119.645 702.549 119.886 702.649C120.075 702.727 120.256 702.815 120.421 702.911C122.06 703.857 122.06 705.398 120.421 706.344C120.255 706.44 120.074 706.528 119.885 706.606C119.669 706.695 119.377 706.678 119.196 706.573C119.175 706.562 119.156 706.549 119.138 706.534C118.967 706.395 119.023 706.202 119.263 706.103C119.405 706.045 119.539 705.979 119.663 705.907C120.886 705.201 120.886 704.054 119.664 703.348ZM118.853 705.72C118.644 705.84 118.305 705.84 118.097 705.72C117.888 705.599 117.888 705.404 118.097 705.283C118.722 704.922 118.722 704.334 118.097 703.972C117.888 703.852 117.888 703.656 118.097 703.536C118.305 703.415 118.644 703.415 118.853 703.536C119.896 704.137 119.896 705.118 118.853 705.72ZM120.938 707.457C120.722 707.536 120.448 707.514 120.275 707.414C120.247 707.398 120.222 707.38 120.2 707.36C120.042 707.216 120.117 707.025 120.367 706.934C120.664 706.827 120.941 706.698 121.191 706.554C123.031 705.492 123.032 703.763 121.191 702.7C120.94 702.555 120.664 702.428 120.367 702.32C120.117 702.23 120.042 702.038 120.2 701.894C120.358 701.749 120.688 701.706 120.938 701.798C121.303 701.929 121.642 702.087 121.95 702.264C124.207 703.567 124.207 705.688 121.95 706.991C121.642 707.168 121.302 707.325 120.938 707.457Z" fill="#333333"/>
<defs>
<filter id="filter0_dddddd_5_7863" x="482.789" y="679.605" width="170.49" height="118.711" filterUnits="userSpaceOnUse" color-interpolation-filters="sRGB">
<feFlood flood-opacity="0" result="BackgroundImageFix"/>
<feColorMatrix in="SourceAlpha" type="matrix" values="0 0 0 0 0 0 0 0 0 0 0 0 0 0 0 0 0 0 127 0" result="hardAlpha"/>
<feOffset dy="0.31491"/>
<feGaussianBlur stdDeviation="0.472013"/>
<feColorMatrix type="matrix" values="0 0 0 0 0 0 0 0 0 0 0 0 0 0 0 0 0 0 0.01 0"/>
<feBlend mode="normal" in2="BackgroundImageFix" result="effect1_dropShadow_5_7863"/>
<feColorMatrix in="SourceAlpha" type="matrix" values="0 0 0 0 0 0 0 0 0 0 0 0 0 0 0 0 0 0 127 0" result="hardAlpha"/>
<feOffset dy="1.3856"/>
<feGaussianBlur stdDeviation="0.977346"/>
<feColorMatrix type="matrix" values="0 0 0 0 0 0 0 0 0 0 0 0 0 0 0 0 0 0 0.02 0"/>
<feBlend mode="normal" in2="effect1_dropShadow_5_7863" result="effect2_dropShadow_5_7863"/>
<feColorMatrix in="SourceAlpha" type="matrix" values="0 0 0 0 0 0 0 0 0 0 0 0 0 0 0 0 0 0 127 0" result="hardAlpha"/>
<feOffset dy="3.40103"/>
<feGaussianBlur stdDeviation="1.94914"/>
<feColorMatrix type="matrix" values="0 0 0 0 0 0 0 0 0 0 0 0 0 0 0 0 0 0 0.03 0"/>
<feBlend mode="normal" in2="effect2_dropShadow_5_7863" result="effect3_dropShadow_5_7863"/>
<feColorMatrix in="SourceAlpha" type="matrix" values="0 0 0 0 0 0 0 0 0 0 0 0 0 0 0 0 0 0 127 0" result="hardAlpha"/>
<feOffset dy="6.55013"/>
<feGaussianBlur stdDeviation="3.82053"/>
<feColorMatrix type="matrix" values="0 0 0 0 0 0 0 0 0 0 0 0 0 0 0 0 0 0 0.04 0"/>
<feBlend mode="normal" in2="effect3_dropShadow_5_7863" result="effect4_dropShadow_5_7863"/>
<feColorMatrix in="SourceAlpha" type="matrix" values="0 0 0 0 0 0 0 0 0 0 0 0 0 0 0 0 0 0 127 0" result="hardAlpha"/>
<feOffset dy="11.0218"/>
<feGaussianBlur stdDeviation="7.02467"/>
<feColorMatrix type="matrix" values="0 0 0 0 0 0 0 0 0 0 0 0 0 0 0 0 0 0 0.05 0"/>
<feBlend mode="normal" in2="effect4_dropShadow_5_7863" result="effect5_dropShadow_5_7863"/>
<feColorMatrix in="SourceAlpha" type="matrix" values="0 0 0 0 0 0 0 0 0 0 0 0 0 0 0 0 0 0 127 0" result="hardAlpha"/>
<feOffset dy="17.0051"/>
<feGaussianBlur stdDeviation="11.9947"/>
<feColorMatrix type="matrix" values="0 0 0 0 0 0 0 0 0 0 0 0 0 0 0 0 0 0 0.07 0"/>
<feBlend mode="normal" in2="effect5_dropShadow_5_7863" result="effect6_dropShadow_5_7863"/>
<feBlend mode="normal" in="SourceGraphic" in2="effect6_dropShadow_5_7863" result="shape"/>
</filter>
<filter id="filter1_dddddd_5_7863" x="417.653" y="717.107" width="170.49" height="118.711" filterUnits="userSpaceOnUse" color-interpolation-filters="sRGB">
<feFlood flood-opacity="0" result="BackgroundImageFix"/>
<feColorMatrix in="SourceAlpha" type="matrix" values="0 0 0 0 0 0 0 0 0 0 0 0 0 0 0 0 0 0 127 0" result="hardAlpha"/>
<feOffset dy="0.31491"/>
<feGaussianBlur stdDeviation="0.472013"/>
<feColorMatrix type="matrix" values="0 0 0 0 0 0 0 0 0 0 0 0 0 0 0 0 0 0 0.01 0"/>
<feBlend mode="normal" in2="BackgroundImageFix" result="effect1_dropShadow_5_7863"/>
<feColorMatrix in="SourceAlpha" type="matrix" values="0 0 0 0 0 0 0 0 0 0 0 0 0 0 0 0 0 0 127 0" result="hardAlpha"/>
<feOffset dy="1.3856"/>
<feGaussianBlur stdDeviation="0.977346"/>
<feColorMatrix type="matrix" values="0 0 0 0 0 0 0 0 0 0 0 0 0 0 0 0 0 0 0.02 0"/>
<feBlend mode="normal" in2="effect1_dropShadow_5_7863" result="effect2_dropShadow_5_7863"/>
<feColorMatrix in="SourceAlpha" type="matrix" values="0 0 0 0 0 0 0 0 0 0 0 0 0 0 0 0 0 0 127 0" result="hardAlpha"/>
<feOffset dy="3.40103"/>
<feGaussianBlur stdDeviation="1.94914"/>
<feColorMatrix type="matrix" values="0 0 0 0 0 0 0 0 0 0 0 0 0 0 0 0 0 0 0.03 0"/>
<feBlend mode="normal" in2="effect2_dropShadow_5_7863" result="effect3_dropShadow_5_7863"/>
<feColorMatrix in="SourceAlpha" type="matrix" values="0 0 0 0 0 0 0 0 0 0 0 0 0 0 0 0 0 0 127 0" result="hardAlpha"/>
<feOffset dy="6.55013"/>
<feGaussianBlur stdDeviation="3.82053"/>
<feColorMatrix type="matrix" values="0 0 0 0 0 0 0 0 0 0 0 0 0 0 0 0 0 0 0.04 0"/>
<feBlend mode="normal" in2="effect3_dropShadow_5_7863" result="effect4_dropShadow_5_7863"/>
<feColorMatrix in="SourceAlpha" type="matrix" values="0 0 0 0 0 0 0 0 0 0 0 0 0 0 0 0 0 0 127 0" result="hardAlpha"/>
<feOffset dy="11.0218"/>
<feGaussianBlur stdDeviation="7.02467"/>
<feColorMatrix type="matrix" values="0 0 0 0 0 0 0 0 0 0 0 0 0 0 0 0 0 0 0.05 0"/>
<feBlend mode="normal" in2="effect4_dropShadow_5_7863" result="effect5_dropShadow_5_7863"/>
<feColorMatrix in="SourceAlpha" type="matrix" values="0 0 0 0 0 0 0 0 0 0 0 0 0 0 0 0 0 0 127 0" result="hardAlpha"/>
<feOffset dy="17.0051"/>
<feGaussianBlur stdDeviation="11.9947"/>
<feColorMatrix type="matrix" values="0 0 0 0 0 0 0 0 0 0 0 0 0 0 0 0 0 0 0.07 0"/>
<feBlend mode="normal" in2="effect5_dropShadow_5_7863" result="effect6_dropShadow_5_7863"/>
<feBlend mode="normal" in="SourceGraphic" in2="effect6_dropShadow_5_7863" result="shape"/>
</filter>
<filter id="filter2_bdddddddd_5_7863" x="239.843" y="550.301" width="358.077" height="266.03" filterUnits="userSpaceOnUse" color-interpolation-filters="sRGB">
<feFlood flood-opacity="0" result="BackgroundImageFix"/>
<feGaussianBlur in="BackgroundImageFix" stdDeviation="2.96072"/>
<feComposite in2="SourceAlpha" operator="in" result="effect1_backgroundBlur_5_7863"/>
<feColorMatrix in="SourceAlpha" type="matrix" values="0 0 0 0 0 0 0 0 0 0 0 0 0 0 0 0 0 0 127 0" result="hardAlpha"/>
<feOffset dy="30.6362"/>
<feGaussianBlur stdDeviation="1.38019"/>
<feColorMatrix type="matrix" values="0 0 0 0 0 0 0 0 0 0 0 0 0 0 0 0 0 0 0.0150289 0"/>
<feBlend mode="normal" in2="effect1_backgroundBlur_5_7863" result="effect2_dropShadow_5_7863"/>
<feColorMatrix in="SourceAlpha" type="matrix" values="0 0 0 0 0 0 0 0 0 0 0 0 0 0 0 0 0 0 127 0" result="hardAlpha"/>
<feOffset dy="32.0702"/>
<feGaussianBlur stdDeviation="2.85781"/>
<feColorMatrix type="matrix" values="0 0 0 0 0 0 0 0 0 0 0 0 0 0 0 0 0 0 0.0251481 0"/>
<feBlend mode="normal" in2="effect2_dropShadow_5_7863" result="effect3_dropShadow_5_7863"/>
<feColorMatrix in="SourceAlpha" type="matrix" values="0 0 0 0 0 0 0 0 0 0 0 0 0 0 0 0 0 0 127 0" result="hardAlpha"/>
<feOffset dy="34.7694"/>
<feGaussianBlur stdDeviation="5.69938"/>
<feColorMatrix type="matrix" values="0 0 0 0 0 0 0 0 0 0 0 0 0 0 0 0 0 0 0.0330313 0"/>
<feBlend mode="normal" in2="effect3_dropShadow_5_7863" result="effect4_dropShadow_5_7863"/>
<feColorMatrix in="SourceAlpha" type="matrix" values="0 0 0 0 0 0 0 0 0 0 0 0 0 0 0 0 0 0 127 0" result="hardAlpha"/>
<feOffset dy="38.987"/>
<feGaussianBlur stdDeviation="11.1714"/>
<feColorMatrix type="matrix" values="0 0 0 0 0 0 0 0 0 0 0 0 0 0 0 0 0 0 0.0413519 0"/>
<feBlend mode="normal" in2="effect4_dropShadow_5_7863" result="effect5_dropShadow_5_7863"/>
<feColorMatrix in="SourceAlpha" type="matrix" values="0 0 0 0 0 0 0 0 0 0 0 0 0 0 0 0 0 0 127 0" result="hardAlpha"/>
<feOffset dy="44.9759"/>
<feGaussianBlur stdDeviation="20.5405"/>
<feColorMatrix type="matrix" values="0 0 0 0 0 0 0 0 0 0 0 0 0 0 0 0 0 0 0.0527836 0"/>
<feBlend mode="normal" in2="effect5_dropShadow_5_7863" result="effect6_dropShadow_5_7863"/>
<feColorMatrix in="SourceAlpha" type="matrix" values="0 0 0 0 0 0 0 0 0 0 0 0 0 0 0 0 0 0 127 0" result="hardAlpha"/>
<feOffset dy="52.9892"/>
<feGaussianBlur stdDeviation="35.0731"/>
<feColorMatrix type="matrix" values="0 0 0 0 0 0 0 0 0 0 0 0 0 0 0 0 0 0 0.07 0"/>
<feBlend mode="normal" in2="effect6_dropShadow_5_7863" result="effect7_dropShadow_5_7863"/>
<feColorMatrix in="SourceAlpha" type="matrix" values="0 0 0 0 0 0 0 0 0 0 0 0 0 0 0 0 0 0 127 0" result="hardAlpha"/>
<feOffset dy="1.36648"/>
<feGaussianBlur stdDeviation="0.0759158"/>
<feComposite in2="hardAlpha" operator="out"/>
<feColorMatrix type="matrix" values="0 0 0 0 1 0 0 0 0 1 0 0 0 0 1 0 0 0 1 0"/>
<feBlend mode="normal" in2="effect7_dropShadow_5_7863" result="effect8_dropShadow_5_7863"/>
<feColorMatrix in="SourceAlpha" type="matrix" values="0 0 0 0 0 0 0 0 0 0 0 0 0 0 0 0 0 0 127 0" result="hardAlpha"/>
<feOffset dy="1.21465"/>
<feGaussianBlur stdDeviation="0.227747"/>
<feComposite in2="hardAlpha" operator="out"/>
<feColorMatrix type="matrix" values="0 0 0 0 0.85098 0 0 0 0 0.858824 0 0 0 0 0.878431 0 0 0 1 0"/>
<feBlend mode="normal" in2="effect8_dropShadow_5_7863" result="effect9_dropShadow_5_7863"/>
<feBlend mode="normal" in="SourceGraphic" in2="effect9_dropShadow_5_7863" result="shape"/>
</filter>
<filter id="filter3_ddddd_5_7863" x="172.524" y="648.344" width="270.048" height="177.206" filterUnits="userSpaceOnUse" color-interpolation-filters="sRGB">
<feFlood flood-opacity="0" result="BackgroundImageFix"/>
<feColorMatrix in="SourceAlpha" type="matrix" values="0 0 0 0 0 0 0 0 0 0 0 0 0 0 0 0 0 0 127 0" result="hardAlpha"/>
<feOffset dy="0.56464"/>
<feGaussianBlur stdDeviation="0.84633"/>
<feColorMatrix type="matrix" values="0 0 0 0 0.0862745 0 0 0 0 0.337255 0 0 0 0 0.878431 0 0 0 0.156481 0"/>
<feBlend mode="normal" in2="BackgroundImageFix" result="effect1_dropShadow_5_7863"/>
<feColorMatrix in="SourceAlpha" type="matrix" values="0 0 0 0 0 0 0 0 0 0 0 0 0 0 0 0 0 0 127 0" result="hardAlpha"/>
<feOffset dy="2.48442"/>
<feGaussianBlur stdDeviation="1.7524"/>
<feColorMatrix type="matrix" values="0 0 0 0 0.0862745 0 0 0 0 0.337255 0 0 0 0 0.878431 0 0 0 0.255185 0"/>
<feBlend mode="normal" in2="effect1_dropShadow_5_7863" result="effect2_dropShadow_5_7863"/>
<feColorMatrix in="SourceAlpha" type="matrix" values="0 0 0 0 0 0 0 0 0 0 0 0 0 0 0 0 0 0 127 0" result="hardAlpha"/>
<feOffset dy="6.09812"/>
<feGaussianBlur stdDeviation="3.49485"/>
<feColorMatrix type="matrix" values="0 0 0 0 0.0862745 0 0 0 0 0.337255 0 0 0 0 0.878431 0 0 0 0.325 0"/>
<feBlend mode="normal" in2="effect2_dropShadow_5_7863" result="effect3_dropShadow_5_7863"/>
<feColorMatrix in="SourceAlpha" type="matrix" values="0 0 0 0 0 0 0 0 0 0 0 0 0 0 0 0 0 0 127 0" result="hardAlpha"/>
<feOffset dy="11.7445"/>
<feGaussianBlur stdDeviation="6.8503"/>
<feColorMatrix type="matrix" values="0 0 0 0 0.0862745 0 0 0 0 0.337255 0 0 0 0 0.878431 0 0 0 0.394815 0"/>
<feBlend mode="normal" in2="effect3_dropShadow_5_7863" result="effect4_dropShadow_5_7863"/>
<feColorMatrix in="SourceAlpha" type="matrix" values="0 0 0 0 0 0 0 0 0 0 0 0 0 0 0 0 0 0 127 0" result="hardAlpha"/>
<feOffset dy="19.7624"/>
<feGaussianBlur stdDeviation="12.5954"/>
<feColorMatrix type="matrix" values="0 0 0 0 0.0862745 0 0 0 0 0.337255 0 0 0 0 0.878431 0 0 0 0.33 0"/>
<feBlend mode="normal" in2="effect4_dropShadow_5_7863" result="effect5_dropShadow_5_7863"/>
<feBlend mode="normal" in="SourceGraphic" in2="effect5_dropShadow_5_7863" result="shape"/>
</filter>
<filter id="filter4_i_5_7863" x="197.715" y="685.822" width="219.666" height="96.1361" filterUnits="userSpaceOnUse" color-interpolation-filters="sRGB">
<feFlood flood-opacity="0" result="BackgroundImageFix"/>
<feBlend mode="normal" in="SourceGraphic" in2="BackgroundImageFix" result="shape"/>
<feColorMatrix in="SourceAlpha" type="matrix" values="0 0 0 0 0 0 0 0 0 0 0 0 0 0 0 0 0 0 127 0" result="hardAlpha"/>
<feOffset dy="1.36119"/>
<feGaussianBlur stdDeviation="2.04178"/>
<feComposite in2="hardAlpha" operator="arithmetic" k2="-1" k3="1"/>
<feColorMatrix type="matrix" values="0 0 0 0 0.0901961 0 0 0 0 0.321569 0 0 0 0 1 0 0 0 1 0"/>
<feBlend mode="normal" in2="shape" result="effect1_innerShadow_5_7863"/>
</filter>
<filter id="filter5_bdddddddd_5_7863" x="-81.8219" y="624.248" width="442.644" height="336.726" filterUnits="userSpaceOnUse" color-interpolation-filters="sRGB">
<feFlood flood-opacity="0" result="BackgroundImageFix"/>
<feGaussianBlur in="BackgroundImageFix" stdDeviation="4.0528"/>
<feComposite in2="SourceAlpha" operator="in" result="effect1_backgroundBlur_5_7863"/>
<feColorMatrix in="SourceAlpha" type="matrix" values="0 0 0 0 0 0 0 0 0 0 0 0 0 0 0 0 0 0 127 0" result="hardAlpha"/>
<feOffset dy="41.9367"/>
<feGaussianBlur stdDeviation="1.88929"/>
<feColorMatrix type="matrix" values="0 0 0 0 0 0 0 0 0 0 0 0 0 0 0 0 0 0 0.0150289 0"/>
<feBlend mode="normal" in2="effect1_backgroundBlur_5_7863" result="effect2_dropShadow_5_7863"/>
<feColorMatrix in="SourceAlpha" type="matrix" values="0 0 0 0 0 0 0 0 0 0 0 0 0 0 0 0 0 0 127 0" result="hardAlpha"/>
<feOffset dy="43.8996"/>
<feGaussianBlur stdDeviation="3.91193"/>
<feColorMatrix type="matrix" values="0 0 0 0 0 0 0 0 0 0 0 0 0 0 0 0 0 0 0.0251481 0"/>
<feBlend mode="normal" in2="effect2_dropShadow_5_7863" result="effect3_dropShadow_5_7863"/>
<feColorMatrix in="SourceAlpha" type="matrix" values="0 0 0 0 0 0 0 0 0 0 0 0 0 0 0 0 0 0 127 0" result="hardAlpha"/>
<feOffset dy="47.5944"/>
<feGaussianBlur stdDeviation="7.80164"/>
<feColorMatrix type="matrix" values="0 0 0 0 0 0 0 0 0 0 0 0 0 0 0 0 0 0 0.0330313 0"/>
<feBlend mode="normal" in2="effect3_dropShadow_5_7863" result="effect4_dropShadow_5_7863"/>
<feColorMatrix in="SourceAlpha" type="matrix" values="0 0 0 0 0 0 0 0 0 0 0 0 0 0 0 0 0 0 127 0" result="hardAlpha"/>
<feOffset dy="53.3676"/>
<feGaussianBlur stdDeviation="15.2921"/>
<feColorMatrix type="matrix" values="0 0 0 0 0 0 0 0 0 0 0 0 0 0 0 0 0 0 0.0413519 0"/>
<feBlend mode="normal" in2="effect4_dropShadow_5_7863" result="effect5_dropShadow_5_7863"/>
<feColorMatrix in="SourceAlpha" type="matrix" values="0 0 0 0 0 0 0 0 0 0 0 0 0 0 0 0 0 0 127 0" result="hardAlpha"/>
<feOffset dy="61.5656"/>
<feGaussianBlur stdDeviation="28.117"/>
<feColorMatrix type="matrix" values="0 0 0 0 0 0 0 0 0 0 0 0 0 0 0 0 0 0 0.0527836 0"/>
<feBlend mode="normal" in2="effect5_dropShadow_5_7863" result="effect6_dropShadow_5_7863"/>
<feColorMatrix in="SourceAlpha" type="matrix" values="0 0 0 0 0 0 0 0 0 0 0 0 0 0 0 0 0 0 127 0" result="hardAlpha"/>
<feOffset dy="72.5347"/>
<feGaussianBlur stdDeviation="48.0101"/>
<feColorMatrix type="matrix" values="0 0 0 0 0 0 0 0 0 0 0 0 0 0 0 0 0 0 0.07 0"/>
<feBlend mode="normal" in2="effect6_dropShadow_5_7863" result="effect7_dropShadow_5_7863"/>
<feColorMatrix in="SourceAlpha" type="matrix" values="0 0 0 0 0 0 0 0 0 0 0 0 0 0 0 0 0 0 127 0" result="hardAlpha"/>
<feOffset dy="1.87052"/>
<feGaussianBlur stdDeviation="0.103918"/>
<feComposite in2="hardAlpha" operator="out"/>
<feColorMatrix type="matrix" values="0 0 0 0 1 0 0 0 0 1 0 0 0 0 1 0 0 0 1 0"/>
<feBlend mode="normal" in2="effect7_dropShadow_5_7863" result="effect8_dropShadow_5_7863"/>
<feColorMatrix in="SourceAlpha" type="matrix" values="0 0 0 0 0 0 0 0 0 0 0 0 0 0 0 0 0 0 127 0" result="hardAlpha"/>
<feOffset dy="1.66269"/>
<feGaussianBlur stdDeviation="0.311754"/>
<feComposite in2="hardAlpha" operator="out"/>
<feColorMatrix type="matrix" values="0 0 0 0 0.85098 0 0 0 0 0.858824 0 0 0 0 0.878431 0 0 0 1 0"/>
<feBlend mode="normal" in2="effect8_dropShadow_5_7863" result="effect9_dropShadow_5_7863"/>
<feBlend mode="normal" in="SourceGraphic" in2="effect9_dropShadow_5_7863" result="shape"/>
</filter>
<linearGradient id="paint0_linear_5_7863" x1="501.37" y1="706.95" x2="642.877" y2="739.974" gradientUnits="userSpaceOnUse">
<stop stop-color="#D7D7D7"/>
<stop offset="1" stop-color="#E7E7E7"/>
</linearGradient>
<linearGradient id="paint1_linear_5_7863" x1="48.5174" y1="-0.808715" x2="72.1811" y2="34.3619" gradientUnits="userSpaceOnUse">
<stop stop-color="#E0E2E8"/>
<stop offset="1" stop-color="#CDD0D6"/>
</linearGradient>
<linearGradient id="paint2_linear_5_7863" x1="436.234" y1="744.453" x2="577.741" y2="777.476" gradientUnits="userSpaceOnUse">
<stop stop-color="#D7D7D7"/>
<stop offset="1" stop-color="#E7E7E7"/>
</linearGradient>
<linearGradient id="paint3_linear_5_7863" x1="48.5174" y1="-0.808715" x2="72.1811" y2="34.3619" gradientUnits="userSpaceOnUse">
<stop stop-color="#E0E2E8"/>
<stop offset="1" stop-color="#CDD0D6"/>
</linearGradient>
<linearGradient id="paint4_linear_5_7863" x1="72.516" y1="-1.76349" x2="128.212" y2="54.9758" gradientUnits="userSpaceOnUse">
<stop stop-color="#E0E2E8"/>
<stop offset="1" stop-color="#CDD0D6"/>
</linearGradient>
<radialGradient id="paint5_radial_5_7863" cx="0" cy="0" r="1" gradientUnits="userSpaceOnUse" gradientTransform="translate(99.5107 40.8685) rotate(92.2082) scale(27.8654 70.465)">
<stop stop-color="#0E74E8"/>
<stop offset="1" stop-color="white"/>
</radialGradient>
<linearGradient id="paint6_linear_5_7863" x1="313.675" y1="649.307" x2="312.995" y2="789.101" gradientUnits="userSpaceOnUse">
<stop stop-color="#580565"/>
<stop offset="0.604167" stop-color="#3E97FF"/>
</linearGradient>
<linearGradient id="paint7_linear_5_7863" x1="91.5745" y1="-25.6966" x2="113.501" y2="94.9906" gradientUnits="userSpaceOnUse">
<stop stop-color="#4BFD67"/>
<stop offset="1" stop-color="#6D14FF"/>
</linearGradient>
<linearGradient id="paint8_linear_5_7863" x1="23.7196" y1="-23.4508" x2="162.508" y2="-26.2235" gradientUnits="userSpaceOnUse">
<stop stop-color="#F1E9FF"/>
<stop offset="1" stop-color="#9866EB"/>
</linearGradient>
<linearGradient id="paint9_linear_5_7863" x1="107.179" y1="-1.11946" x2="132.496" y2="58.9308" gradientUnits="userSpaceOnUse">
<stop stop-color="#E0E2E8"/>
<stop offset="1" stop-color="#CDD0D6"/>
</linearGradient>
<clipPath id="clip0_5_7863">
<rect width="16.8239" height="16.8239" fill="white" transform="matrix(0.866025 0.5 -0.866025 0.5 161.065 722.554)"/>
</clipPath>
<clipPath id="clip1_5_7863">
<rect width="16.8239" height="16.8239" fill="white" transform="matrix(0.866025 0.5 -0.866025 0.5 206.022 748.51)"/>
</clipPath>
</defs>
</svg>
