<svg width="220" height="143" viewBox="0 0 220 143" fill="none" xmlns="http://www.w3.org/2000/svg">
<path d="M41.5957 47.3891C41.5957 31.0622 54.8313 17.8266 71.1582 17.8266C87.4851 17.8266 100.721 31.0622 100.721 47.3891V65.7078C100.721 73.1412 98.99 80.4724 95.6658 87.121L80.6603 117.132C78.4239 121.605 73.8525 124.43 68.8518 124.43C59.049 124.43 52.6652 114.124 57.0315 105.347L63.0056 93.3387C66.7415 85.8292 61.2793 77.0111 52.8919 77.0111C46.6532 77.0111 41.5957 71.9536 41.5957 65.7149V47.3891Z" fill="#0066FF" fill-opacity="0.3"/>
<path d="M118.982 47.3891C118.982 31.0622 132.218 17.8266 148.544 17.8266C164.871 17.8266 178.107 31.0622 178.107 47.3891V65.7078C178.107 73.1412 176.376 80.4724 173.052 87.121L158.047 117.132C155.81 121.605 151.239 124.43 146.238 124.43C136.435 124.43 130.051 114.124 134.418 105.347L140.392 93.3387C144.128 85.8292 138.666 77.0111 130.278 77.0111C124.039 77.0111 118.982 71.9536 118.982 65.7149V47.3891Z" fill="#0066FF" fill-opacity="0.3"/>
</svg>
